<svg fill="none" height="763" viewBox="0 0 760 763" width="760" xmlns="http://www.w3.org/2000/svg" xmlns:xlink="http://www.w3.org/1999/xlink"><clipPath id="a"><path d="m113 434h564v210h-564z"/></clipPath><clipPath id="b"><path d="m468 491h168v132h-168z"/></clipPath><clipPath id="c"><path d="m338 491h168v132h-168z"/></clipPath><clipPath id="d"><path d="m208 491h168v132h-168z"/></clipPath><clipPath id="e"><path d="m113 200h564v167h-564z"/></clipPath><path d="m0 0h760v763h-760z" fill="#fff"/><rect fill="#dee7ee" height="588" rx="18" stroke="#353537" stroke-width="4" width="638" x="63" y="123"/><path d="m130.356 688.6h4.644l-4.023-6.939c2.079-1.053 3.483-3.159 3.483-5.481 0-3.591-2.889-6.48-6.48-6.48h-7.56v18.9h4.32v-6.21h2.052zm-5.616-14.85h3.24c1.188 0 2.16 1.053 2.16 2.43s-.972 2.43-2.16 2.43h-3.24zm21.272 1.35v1.269c-.891-1.026-2.214-1.647-4.023-1.647-3.537 0-6.453 3.105-6.453 7.128s2.916 7.128 6.453 7.128c1.809 0 3.132-.621 4.023-1.647v1.269h4.05v-13.5zm-3.213 10.044c-1.863 0-3.213-1.269-3.213-3.294s1.35-3.294 3.213-3.294 3.213 1.269 3.213 3.294-1.35 3.294-3.213 3.294zm18.307-10.422c-1.809 0-3.132.621-4.023 1.647v-6.669h-4.05v18.9h4.05v-1.269c.891 1.026 2.214 1.647 4.023 1.647 3.537 0 6.453-3.105 6.453-7.128s-2.916-7.128-6.453-7.128zm-.81 10.422c-1.863 0-3.213-1.269-3.213-3.294s1.35-3.294 3.213-3.294 3.213 1.269 3.213 3.294-1.35 3.294-3.213 3.294zm17.632-10.422c-1.809 0-3.132.621-4.023 1.647v-6.669h-4.05v18.9h4.05v-1.269c.891 1.026 2.214 1.647 4.023 1.647 3.537 0 6.453-3.105 6.453-7.128s-2.916-7.128-6.453-7.128zm-.81 10.422c-1.863 0-3.213-1.269-3.213-3.294s1.35-3.294 3.213-3.294 3.213 1.269 3.213 3.294-1.35 3.294-3.213 3.294zm11.584-11.232c1.323 0 2.43-1.107 2.43-2.43s-1.107-2.43-2.43-2.43-2.43 1.107-2.43 2.43 1.107 2.43 2.43 2.43zm-2.025 14.688h4.05v-13.5h-4.05zm14.925-9.612v-3.888h-2.781v-3.78l-4.05 1.215v2.565h-2.16v3.888h2.16v4.779c0 3.78 1.539 5.373 6.831 4.833v-3.672c-1.782.108-2.781 0-2.781-1.161v-4.779zm21.592-9.288h-4.32l-5.13 8.397-5.13-8.397h-4.32v18.9h4.32v-10.989l4.887 8.019h.486l4.887-8.019v10.989h4.32zm22.094 9.45c0-5.562-4.401-9.828-9.828-9.828s-9.828 4.266-9.828 9.828 4.401 9.828 9.828 9.828c1.593 0 3.105-.378 4.428-1.026l2.025 2.133 3.105-2.754-1.89-1.998c1.35-1.674 2.16-3.807 2.16-6.183zm-9.828 5.616c-3.078 0-5.508-2.241-5.508-5.616s2.43-5.616 5.508-5.616 5.508 2.241 5.508 5.616c0 1.161-.297 2.187-.783 3.051l-3.024-3.213-3.105 2.754 2.727 2.889c-.432.081-.864.135-1.323.135z" fill="#030303"/><path clip-rule="evenodd" d="m83.2559 664.456v26.586c.023.046.0394.095.0487.146.0823.482.4711.854.9567.914h.2864 24.7203c.142.002.283-.014.421-.049.438-.088.775-.441.841-.883.006-.061.006-.122 0-.183v-15.063c.006-.271-.09-.534-.268-.737-.213-.245-.523-.383-.847-.378h-8.97c-.115.001-.23-.013-.341-.043-.332-.083-.5759-.366-.6093-.707v-.243-9.22c.0112-.306-.0883-.607-.2803-.847-.1998-.247-.4885-.407-.8044-.444l-.0731-.031h-3.4183l-.0854.031c-.5551.065-.9947.499-1.0663 1.054v.304 9.177c.0121.103.0121.208 0 .311-.0932.396-.4463.676-.8531.676h-1.6269-1.2979c-.2533.016-.5016-.076-.6845-.252s-.2838-.42-.2782-.674v-1.018-.932-6.465-.969c.0107-.592-.4057-1.106-.9872-1.218l-.1888-.043h-3.394l-.0854.03c-.5454.062-.982.482-1.0663 1.024-.0107.05-.0271.1-.0487.146zm17.6341 16.227h.207l2.633.006c.8.032 1.435.686 1.444 1.487v2.583c-.004.714-.516 1.324-1.219 1.451-.095.008-.191.008-.286 0h-2.511c-.667-.006-1.2488-.454-1.4257-1.097-.0381-.133-.0586-.27-.0609-.408v-2.554c-.0055-.72.5086-1.341 1.2186-1.468z" fill="#f79420" fill-rule="evenodd"/><path d="m83.2559 691.042h-.8653v.203l.091.183zm0-26.586-.7851-.363-.0802.173v.19zm.0487 26.732.853-.146-.0018-.01zm.9567.914-.1066.859.0531.006h.0535zm25.0067 0 .014-.865h-.014zm.421-.049-.17-.848-.021.004-.02.005zm.841-.883.856.127.003-.021.002-.02zm0-.183h-.866v.043l.005.043zm0-15.063-.865-.02-.001.01v.01zm-.268-.737-.652.569.002.002zm-.847-.378v.865h.012zm-8.97 0v-.865h-.009zm-.341-.043.222-.836-.011-.003zm-.6093-.707h-.8653v.043l.0042.042zm0-9.463-.8647-.031-.0006.016v.015zm-.2803-.847.6751-.541-.0018-.002zm-.8044-.444-.3327.798.111.047.1195.014zm-.0731-.031.3328-.798-.1597-.067h-.1731zm-3.4183 0v-.865h-.1499l-.1412.05zm-.0854.031.1011.859.0975-.011.0925-.033zm-1.0663 1.054-.8581-.111-.0072.055v.056zm0 9.481h-.8653v.051l.0059.05zm0 .311.8422.198.0114-.048.0058-.049zm-.8531.676v.865h.001zm-2.9248 0v-.865h-.0262l-.0263.002zm-.9627-.926.865.019.0002-.009v-.01zm0-9.384-.8651-.015-.0002.007v.008zm-.9872-1.218-.1905.844.0131.003.0132.002zm-.1888-.043.1905-.844-.0941-.021h-.0964zm-3.394 0v-.865h-.1499l-.1412.05zm-.0854.03.0979.86.0992-.011.094-.034zm-1.0663 1.024.8463.18.005-.023.0037-.024zm17.7924 16.373.002-.865h-.002zm-.207 0v-.865h-.077l-.076.013zm2.84.006.035-.865h-.017-.016zm1.444 1.487h.865v-.01zm0 2.583.865.005v-.005zm-1.219 1.451.079.861.037-.003.037-.007zm-.286 0 .078-.862-.039-.004h-.039zm-2.511 0-.008.865h.008zm-1.4257-1.097.8347-.23-.003-.009zm-.0609-.408h-.8653v.007l.0001.007zm0-2.554h.8656v-.006zm-15.5503 8.891v-26.586h-1.7305v26.586zm.0347-.01c-.024-.131-.0663-.258-.1257-.377l-1.5485.773c-.0133-.027-.0228-.055-.0282-.085zm.212.211c-.1067-.013-.1922-.095-.2103-.201l-1.7058.291c.1465.859.8385 1.52 1.703 1.628zm.1799-.006h-.2864v1.73h.2864zm24.7203 0h-24.7203v1.73h24.7203zm.21-.023c-.064.016-.13.024-.196.023l-.027 1.73c.217.003.434-.022.645-.075zm.196-.172c-.012.082-.074.147-.155.163l.339 1.697c.797-.16 1.408-.802 1.528-1.605zm-.005.031v.011l1.722.172c.011-.118.011-.237 0-.355zm-.005-15.149v15.063h1.731v-15.063zm-.052-.166c.035.04.054.092.053.146l1.73.04c.011-.488-.161-.962-.483-1.328zm-.185-.084c.07-.001.137.029.183.081l1.304-1.137c-.381-.436-.933-.683-1.512-.674zm-8.982 0h8.97v-1.73h-8.97zm-.5627-.071c.1867.049.3787.073.5717.071l-.018-1.73c-.037 0-.074-.005-.11-.014zm-1.2487-1.459c.0691.704.5734 1.289 1.2599 1.462l.4215-1.679c.022.006.039.025.041.048zm-.0042-.328v.243h1.7306v-.243zm0-9.22v9.22h1.7306v-9.22zm-.0902-.305c.0622.077.0944.175.0908.274l1.729.063c.019-.514-.148-1.018-.4695-1.42zm-.2314-.127c.0916.011.1753.057.2332.129l1.3467-1.087c-.3416-.423-.8352-.696-1.3754-.761zm-.3037-.091.0732.03.6655-1.597-.0731-.03zm-3.0855.066h3.4183v-1.73h-3.4183zm.2057-.019.0853-.031-.5821-1.63-.0853.031zm-.4993.35c.0208-.161.1483-.287.3093-.306l-.2021-1.719c-.9493.112-1.7009.855-1.8234 1.803zm.0072.193v-.304h-1.7306v.304zm0 9.177v-9.177h-1.7306v9.177zm-.0059.412c.0199-.171.0199-.342 0-.513l-1.7188.202c.0043.036.0043.073 0 .109zm-1.7115 1.44c.8079 0 1.5092-.557 1.6943-1.343l-1.6844-.396c-.0013.005-.0062.009-.0119.009zm-1.6279 0h1.6269v-1.73h-1.6269zm-1.2979 0h1.2979v-1.73h-1.2979zm-1.2844-.493c.3573.343.8421.522 1.3369.492l-.105-1.727c-.0119 0-.0235-.004-.0321-.012zm-.5434-1.317c-.0109.496.1862.973.5434 1.317l1.1998-1.247c-.0086-.009-.0133-.02-.0131-.032zm-.0002-.999v1.018h1.7305v-1.018zm0-.932v.932h1.7305v-.932zm0-6.465v6.465h1.7305v-6.465zm0-.969v.969h1.7305v-.969zm-.2861-.369c.1686.033.2894.182.2863.354l1.7302.031c.0184-1.013-.6937-1.892-1.688-2.084zm-.2152-.048.1889.043.3811-1.688-.1889-.043zm-3.2034.021h3.394v-1.73h-3.394zm.2057-.02.0853-.03-.5821-1.63-.0853.031zm-.5024.342c.0244-.157.1511-.279.3092-.297l-.1957-1.719c-.9328.106-1.6793.823-1.8235 1.75zm-.1187.377c.0489-.105.0858-.216.11-.33l-1.6926-.36c.0027-.013.0069-.025.0125-.037zm17.0561 14.998h-.207v1.73h.207zm2.635.006-2.633-.006-.004 1.73 2.633.006zm2.307 2.342c-.014-1.261-1.014-2.291-2.274-2.342l-.07 1.73c.34.013.61.291.613.632zm0 2.593v-2.583h-1.731v2.583zm-1.931 2.302c1.114-.2 1.925-1.166 1.931-2.297l-1.731-.009c-.001.297-.214.55-.506.603zm-.518.01c.148.014.296.014.444 0l-.158-1.723c-.043.004-.086.004-.129 0zm-2.432.004h2.511v-1.731h-2.511zm-2.26-1.733c.2795 1.016 1.199 1.723 2.252 1.733l.016-1.731c-.28-.002-.525-.19-.599-.461zm-.0918-.623c.0037.214.0354.427.0944.632l1.6634-.477c-.017-.06-.026-.122-.027-.184zm-.0001-2.568v2.554h1.7309v-2.554zm1.9309-2.32c-1.1242.202-1.9395 1.185-1.9309 2.327l1.7309-.013c-.003-.3.211-.557.506-.61z" fill="#444c56"/><g clip-path="url(#a)"><rect fill="#fff" height="210" rx="18" width="564" x="113" y="434"/><g clip-path="url(#b)"><rect fill="#8bd2e4" height="105.436" rx="8.772" stroke="#353537" stroke-width="2.924" width="106.726" x="498.462" y="492.462"/><g fill="#fff"><rect height="13" rx="2.924" width="90" x="507" y="506"/><rect height="13" rx="2.924" width="90" x="507" y="528"/><rect height="13" rx="2.924" width="90" x="507" y="572"/><rect height="13" rx="2.924" width="90" x="507" y="550"/></g><path d="m529.769 614.336c0 1.163-.299 2.208-.896 3.136-.587.928-1.381 1.621-2.384 2.08.096.16.245.299.448.416.213.107.432.16.656.16s.443-.037.656-.112c.213-.064.384-.144.512-.24.277-.224.475-.443.592-.656l1.296 1.552c-.917.971-2.064 1.456-3.44 1.456-.64 0-1.269-.176-1.888-.528s-1.093-.848-1.424-1.488c-1.653 0-3.045-.549-4.176-1.648-1.131-1.109-1.696-2.485-1.696-4.128s.565-3.013 1.696-4.112c1.131-1.109 2.523-1.664 4.176-1.664s3.045.555 4.176 1.664c1.131 1.099 1.696 2.469 1.696 4.112zm-2.544.016c0-1.003-.32-1.856-.96-2.56s-1.429-1.056-2.368-1.056c-.928 0-1.712.352-2.352 1.056s-.96 1.557-.96 2.56c0 .992.32 1.84.96 2.544.64.693 1.424 1.04 2.352 1.04.939 0 1.728-.347 2.368-1.04.64-.704.96-1.552.96-2.544zm9.986 1.68v-4.64h2.416v8.608h-2.416v-1.136c-.597.843-1.37 1.264-2.32 1.264-.938 0-1.728-.293-2.368-.88-.64-.597-.96-1.477-.96-2.64v-5.216h2.416v4.688c0 1.323.486 1.984 1.456 1.984.48 0 .896-.171 1.248-.512.352-.352.528-.859.528-1.52zm12.139 2.72c-.971.917-2.112 1.376-3.424 1.376-1.302 0-2.379-.4-3.232-1.2-.854-.811-1.28-1.893-1.28-3.248s.432-2.432 1.296-3.232c.874-.8 1.904-1.2 3.088-1.2s2.186.357 3.008 1.072c.832.715 1.248 1.696 1.248 2.944v1.28h-6.272c.074.469.32.853.736 1.152s.885.448 1.408.448c.842 0 1.536-.283 2.08-.848zm-1.728-3.92c-.054-.512-.246-.907-.576-1.184-.331-.277-.736-.416-1.216-.416-.47 0-.902.144-1.296.432-.395.288-.624.677-.688 1.168zm9.714 1.2v-4.64h2.416v8.608h-2.416v-1.136c-.597.843-1.37 1.264-2.32 1.264-.938 0-1.728-.293-2.368-.88-.64-.597-.96-1.477-.96-2.64v-5.216h2.416v4.688c0 1.323.486 1.984 1.456 1.984.48 0 .896-.171 1.248-.512.352-.352.528-.859.528-1.52zm12.139 2.72c-.971.917-2.112 1.376-3.424 1.376-1.302 0-2.379-.4-3.232-1.2-.854-.811-1.28-1.893-1.28-3.248s.432-2.432 1.296-3.232c.874-.8 1.904-1.2 3.088-1.2s2.186.357 3.008 1.072c.832.715 1.248 1.696 1.248 2.944v1.28h-6.272c.074.469.32.853.736 1.152s.885.448 1.408.448c.842 0 1.536-.283 2.08-.848zm-1.728-3.92c-.054-.512-.246-.907-.576-1.184-.331-.277-.736-.416-1.216-.416-.47 0-.902.144-1.296.432-.395.288-.624.677-.688 1.168zm13.757 2.96c1.227 0 2.23-.485 3.008-1.456l1.6 1.648c-1.269 1.429-2.768 2.144-4.496 2.144-1.717 0-3.136-.544-4.256-1.632-1.109-1.088-1.664-2.459-1.664-4.112 0-1.664.566-3.051 1.696-4.16 1.142-1.109 2.534-1.664 4.176-1.664 1.835 0 3.371.699 4.608 2.096l-1.552 1.76c-.789-.981-1.77-1.472-2.944-1.472-.938 0-1.744.309-2.416.928-.661.608-.992 1.435-.992 2.48 0 1.035.315 1.867.944 2.496.63.629 1.392.944 2.288.944z" fill="#353537"/></g><g clip-path="url(#c)"><rect fill="#8bd2e4" height="105.436" rx="8.772" stroke="#353537" stroke-width="2.924" width="106.726" x="368.462" y="492.462"/><g fill="#fff"><rect height="13" rx="2.924" width="90" x="377" y="506"/><rect height="13" rx="2.924" width="90" x="377" y="528"/><rect height="13" rx="2.924" width="90" x="377" y="572"/><rect height="13" rx="2.924" width="90" x="377" y="550"/></g><path d="m400.113 614.336c0 1.163-.299 2.208-.896 3.136-.587.928-1.382 1.621-2.384 2.08.096.16.245.299.448.416.213.107.432.16.656.16s.442-.037.656-.112c.213-.064.384-.144.512-.24.277-.224.474-.443.592-.656l1.296 1.552c-.918.971-2.064 1.456-3.44 1.456-.64 0-1.27-.176-1.888-.528-.619-.352-1.094-.848-1.424-1.488-1.654 0-3.046-.549-4.176-1.648-1.131-1.109-1.696-2.485-1.696-4.128s.565-3.013 1.696-4.112c1.13-1.109 2.522-1.664 4.176-1.664 1.653 0 3.045.555 4.176 1.664 1.13 1.099 1.696 2.469 1.696 4.112zm-2.544.016c0-1.003-.32-1.856-.96-2.56s-1.43-1.056-2.368-1.056c-.928 0-1.712.352-2.352 1.056s-.96 1.557-.96 2.56c0 .992.32 1.84.96 2.544.64.693 1.424 1.04 2.352 1.04.938 0 1.728-.347 2.368-1.04.64-.704.96-1.552.96-2.544zm9.986 1.68v-4.64h2.416v8.608h-2.416v-1.136c-.597.843-1.37 1.264-2.32 1.264-.938 0-1.728-.293-2.368-.88-.64-.597-.96-1.477-.96-2.64v-5.216h2.416v4.688c0 1.323.486 1.984 1.456 1.984.48 0 .896-.171 1.248-.512.352-.352.528-.859.528-1.52zm12.139 2.72c-.971.917-2.112 1.376-3.424 1.376-1.302 0-2.379-.4-3.232-1.2-.854-.811-1.28-1.893-1.28-3.248s.432-2.432 1.296-3.232c.874-.8 1.904-1.2 3.088-1.2s2.186.357 3.008 1.072c.832.715 1.248 1.696 1.248 2.944v1.28h-6.272c.074.469.32.853.736 1.152s.885.448 1.408.448c.842 0 1.536-.283 2.08-.848zm-1.728-3.92c-.054-.512-.246-.907-.576-1.184-.331-.277-.736-.416-1.216-.416-.47 0-.902.144-1.296.432-.395.288-.624.677-.688 1.168zm9.714 1.2v-4.64h2.416v8.608h-2.416v-1.136c-.597.843-1.37 1.264-2.32 1.264-.938 0-1.728-.293-2.368-.88-.64-.597-.96-1.477-.96-2.64v-5.216h2.416v4.688c0 1.323.486 1.984 1.456 1.984.48 0 .896-.171 1.248-.512.352-.352.528-.859.528-1.52zm12.139 2.72c-.971.917-2.112 1.376-3.424 1.376-1.302 0-2.379-.4-3.232-1.2-.854-.811-1.28-1.893-1.28-3.248s.432-2.432 1.296-3.232c.874-.8 1.904-1.2 3.088-1.2s2.186.357 3.008 1.072c.832.715 1.248 1.696 1.248 2.944v1.28h-6.272c.074.469.32.853.736 1.152s.885.448 1.408.448c.842 0 1.536-.283 2.08-.848zm-1.728-3.92c-.054-.512-.246-.907-.576-1.184-.331-.277-.736-.416-1.216-.416-.47 0-.902.144-1.296.432-.395.288-.624.677-.688 1.168zm13.517 5.168h-4.896v-11.184h4.352c.757 0 1.408.091 1.952.272.555.181.971.427 1.248.736.501.576.752 1.227.752 1.952 0 .875-.283 1.525-.848 1.952-.192.149-.325.245-.4.288-.075.032-.208.091-.4.176.693.149 1.243.464 1.648.944.416.469.624 1.056.624 1.76 0 .779-.267 1.467-.8 2.064-.619.693-1.696 1.04-3.232 1.04zm-2.4-6.656h1.184c.693 0 1.205-.075 1.536-.224.341-.149.512-.469.512-.96 0-.501-.155-.832-.464-.992s-.832-.24-1.568-.24h-1.2zm0 4.544h1.712c.715 0 1.248-.085 1.6-.256.363-.181.544-.528.544-1.04 0-.523-.192-.864-.576-1.024-.373-.171-.976-.256-1.808-.256h-1.472z" fill="#353537"/></g><g clip-path="url(#d)"><rect fill="#8bd2e4" height="105.436" rx="8.772" stroke="#353537" stroke-width="2.924" width="106.726" x="236.462" y="492.462"/><g fill="#fff"><rect height="13" rx="2.924" width="90" x="245" y="506"/><rect height="13" rx="2.924" width="90" x="245" y="528"/><rect height="13" rx="2.924" width="90" x="245" y="572"/><rect height="13" rx="2.924" width="90" x="245" y="550"/></g><path d="m269.668 614.336c0 1.163-.299 2.208-.896 3.136-.587.928-1.382 1.621-2.384 2.08.096.16.245.299.448.416.213.107.432.16.656.16s.442-.037.656-.112c.213-.064.384-.144.512-.24.277-.224.474-.443.592-.656l1.296 1.552c-.918.971-2.064 1.456-3.44 1.456-.64 0-1.27-.176-1.888-.528-.619-.352-1.094-.848-1.424-1.488-1.654 0-3.046-.549-4.176-1.648-1.131-1.109-1.696-2.485-1.696-4.128s.565-3.013 1.696-4.112c1.13-1.109 2.522-1.664 4.176-1.664 1.653 0 3.045.555 4.176 1.664 1.13 1.099 1.696 2.469 1.696 4.112zm-2.544.016c0-1.003-.32-1.856-.96-2.56s-1.43-1.056-2.368-1.056c-.928 0-1.712.352-2.352 1.056s-.96 1.557-.96 2.56c0 .992.32 1.84.96 2.544.64.693 1.424 1.04 2.352 1.04.938 0 1.728-.347 2.368-1.04.64-.704.96-1.552.96-2.544zm9.986 1.68v-4.64h2.416v8.608h-2.416v-1.136c-.597.843-1.371 1.264-2.32 1.264-.939 0-1.728-.293-2.368-.88-.64-.597-.96-1.477-.96-2.64v-5.216h2.416v4.688c0 1.323.485 1.984 1.456 1.984.48 0 .896-.171 1.248-.512.352-.352.528-.859.528-1.52zm12.138 2.72c-.97.917-2.112 1.376-3.424 1.376-1.301 0-2.378-.4-3.232-1.2-.853-.811-1.28-1.893-1.28-3.248s.432-2.432 1.296-3.232c.875-.8 1.904-1.2 3.088-1.2s2.187.357 3.008 1.072c.832.715 1.248 1.696 1.248 2.944v1.28h-6.272c.075.469.32.853.736 1.152s.886.448 1.408.448c.843 0 1.536-.283 2.08-.848zm-1.728-3.92c-.053-.512-.245-.907-.576-1.184-.33-.277-.736-.416-1.216-.416-.469 0-.901.144-1.296.432-.394.288-.624.677-.688 1.168zm9.715 1.2v-4.64h2.416v8.608h-2.416v-1.136c-.597.843-1.371 1.264-2.32 1.264-.939 0-1.728-.293-2.368-.88-.64-.597-.96-1.477-.96-2.64v-5.216h2.416v4.688c0 1.323.485 1.984 1.456 1.984.48 0 .896-.171 1.248-.512.352-.352.528-.859.528-1.52zm12.138 2.72c-.97.917-2.112 1.376-3.424 1.376-1.301 0-2.378-.4-3.232-1.2-.853-.811-1.28-1.893-1.28-3.248s.432-2.432 1.296-3.232c.875-.8 1.904-1.2 3.088-1.2s2.187.357 3.008 1.072c.832.715 1.248 1.696 1.248 2.944v1.28h-6.272c.075.469.32.853.736 1.152s.886.448 1.408.448c.843 0 1.536-.283 2.08-.848zm-1.728-3.92c-.053-.512-.245-.907-.576-1.184-.33-.277-.736-.416-1.216-.416-.469 0-.901.144-1.296.432-.394.288-.624.677-.688 1.168zm16.59 5.168-1.04-2.416h-4.688l-1.04 2.416h-2.656l4.832-11.184h2.416l4.832 11.184zm-3.376-7.856-1.408 3.248h2.8z" fill="#353537"/></g><path d="m147.16 464.212c0 1.599-.411 3.036-1.232 4.312-.807 1.276-1.899 2.229-3.278 2.86.132.22.337.411.616.572.293.147.594.22.902.22s.609-.051.902-.154c.293-.088.528-.198.704-.33.381-.308.653-.609.814-.902l1.782 2.134c-1.261 1.335-2.838 2.002-4.73 2.002-.88 0-1.745-.242-2.596-.726s-1.503-1.166-1.958-2.046c-2.273 0-4.187-.755-5.742-2.266-1.555-1.525-2.332-3.417-2.332-5.676s.777-4.143 2.332-5.654c1.555-1.525 3.469-2.288 5.742-2.288s4.187.763 5.742 2.288c1.555 1.511 2.332 3.395 2.332 5.654zm-3.498.022c0-1.379-.44-2.552-1.32-3.52s-1.965-1.452-3.256-1.452c-1.276 0-2.354.484-3.234 1.452s-1.32 2.141-1.32 3.52c0 1.364.44 2.53 1.32 3.498.88.953 1.958 1.43 3.234 1.43 1.291 0 2.376-.477 3.256-1.43.88-.968 1.32-2.134 1.32-3.498zm10.497 3.806c.572.704 1.342 1.056 2.31 1.056s1.731-.352 2.288-1.056c.572-.719.858-1.694.858-2.926v-8.492h3.432v8.602c0 2.229-.616 3.945-1.848 5.148-1.232 1.188-2.808 1.782-4.73 1.782-1.921 0-3.505-.601-4.752-1.804-1.232-1.203-1.848-2.911-1.848-5.126v-8.602h3.432v8.492c0 1.232.286 2.207.858 2.926zm23.54-11.418v3.058h-7.656v3.168h6.886v2.926h-6.886v3.19h7.898v3.036h-11.33v-15.378zm7.376 11.418c.572.704 1.342 1.056 2.31 1.056s1.731-.352 2.288-1.056c.572-.719.858-1.694.858-2.926v-8.492h3.432v8.602c0 2.229-.616 3.945-1.848 5.148-1.232 1.188-2.808 1.782-4.73 1.782-1.921 0-3.505-.601-4.752-1.804-1.232-1.203-1.848-2.911-1.848-5.126v-8.602h3.432v8.492c0 1.232.286 2.207.858 2.926zm23.54-11.418v3.058h-7.656v3.168h6.886v2.926h-6.886v3.19h7.898v3.036h-11.33v-15.378zm8.256 2.662c-.572 0-1.026.139-1.364.418-.322.264-.484.623-.484 1.078 0 .44.198.792.594 1.056.411.264 1.342.579 2.794.946 1.467.352 2.604.887 3.41 1.606.807.719 1.21 1.767 1.21 3.146s-.52 2.501-1.562 3.366c-1.026.851-2.383 1.276-4.07 1.276-2.434 0-4.627-.902-6.578-2.706l2.046-2.508c1.658 1.452 3.19 2.178 4.598 2.178.631 0 1.122-.132 1.474-.396.367-.279.55-.645.55-1.1 0-.469-.19-.836-.572-1.1-.381-.279-1.136-.557-2.266-.836-1.789-.425-3.102-.975-3.938-1.65-.821-.689-1.232-1.76-1.232-3.212 0-1.467.521-2.596 1.562-3.388 1.056-.792 2.369-1.188 3.938-1.188 1.027 0 2.054.176 3.08.528 1.027.352 1.922.851 2.684 1.496l-1.738 2.508c-1.334-1.012-2.713-1.518-4.136-1.518z" fill="#353537"/></g><g clip-path="url(#e)"><rect fill="#fff" height="167" rx="18" width="564" x="113" y="200"/><path d="m135.126 229.53h7.392v2.86h-7.392zm.264 8.47h-3.564v-15.4h11.638v2.86h-8.074zm7.84 0 6.864-15.4h3.52l6.886 15.4h-3.74l-5.632-13.596h1.408l-5.654 13.596zm3.432-3.3.946-2.706h7.92l.968 2.706zm15.435 3.3v-15.4h2.948l9.086 11.088h-1.43v-11.088h3.52v15.4h-2.926l-9.108-11.088h1.43v11.088zm25.248.264c-1.217 0-2.347-.198-3.388-.594-1.027-.396-1.921-.953-2.684-1.672-.748-.719-1.335-1.562-1.76-2.53-.411-.968-.616-2.024-.616-3.168s.205-2.2.616-3.168c.425-.968 1.019-1.811 1.782-2.53s1.657-1.276 2.684-1.672 2.141-.594 3.344-.594c1.217 0 2.332.198 3.344.594 1.027.396 1.914.953 2.662 1.672.763.719 1.357 1.562 1.782 2.53.425.953.638 2.009.638 3.168 0 1.144-.213 2.207-.638 3.19-.425.968-1.019 1.811-1.782 2.53-.748.704-1.635 1.254-2.662 1.65-1.012.396-2.119.594-3.322.594zm-.022-3.036c.689 0 1.32-.117 1.892-.352.587-.235 1.1-.572 1.54-1.012s.777-.961 1.012-1.562c.249-.601.374-1.269.374-2.002s-.125-1.401-.374-2.002c-.235-.601-.572-1.122-1.012-1.562-.425-.44-.931-.777-1.518-1.012s-1.225-.352-1.914-.352-1.327.117-1.914.352c-.572.235-1.078.572-1.518 1.012s-.785.961-1.034 1.562c-.235.601-.352 1.269-.352 2.002 0 .719.117 1.386.352 2.002.249.601.587 1.122 1.012 1.562.44.44.953.777 1.54 1.012s1.225.352 1.914.352zm17.947 3.036c-2.186 0-3.894-.609-5.126-1.826s-1.848-2.955-1.848-5.214v-8.624h3.564v8.492c0 1.467.3 2.523.902 3.168.601.645 1.444.968 2.53.968 1.085 0 1.928-.323 2.53-.968.601-.645.902-1.701.902-3.168v-8.492h3.52v8.624c0 2.259-.616 3.997-1.848 5.214s-2.941 1.826-5.126 1.826zm13.428-.264v-12.496h-4.928v-2.904h13.42v2.904h-4.928v12.496zm19.918-9.196h7.414v2.772h-7.414zm.264 6.336h8.382v2.86h-11.924v-15.4h11.638v2.86h-8.096zm9.307 2.86 6.622-9.13v2.596l-6.336-8.866h4.048l4.378 6.182-1.694.022 4.312-6.204h3.872l-6.292 8.712v-2.552l6.666 9.24h-4.114l-4.532-6.534h1.628l-4.466 6.534zm24.277.264c-1.188 0-2.296-.191-3.322-.572-1.012-.396-1.892-.953-2.64-1.672s-1.335-1.562-1.76-2.53c-.411-.968-.616-2.031-.616-3.19s.205-2.222.616-3.19c.425-.968 1.012-1.811 1.76-2.53.762-.719 1.65-1.269 2.662-1.65 1.012-.396 2.119-.594 3.322-.594 1.334 0 2.537.235 3.608.704 1.085.455 1.994 1.129 2.728 2.024l-2.288 2.112c-.528-.601-1.115-1.049-1.76-1.342-.646-.308-1.35-.462-2.112-.462-.719 0-1.379.117-1.98.352-.602.235-1.122.572-1.562 1.012s-.785.961-1.034 1.562c-.235.601-.352 1.269-.352 2.002s.117 1.401.352 2.002c.249.601.594 1.122 1.034 1.562s.96.777 1.562 1.012c.601.235 1.261.352 1.98.352.762 0 1.466-.147 2.112-.44.645-.308 1.232-.77 1.76-1.386l2.288 2.112c-.734.895-1.643 1.577-2.728 2.046-1.071.469-2.281.704-3.63.704zm19.324-15.664h3.564v15.4h-3.564zm-6.996 15.4h-3.564v-15.4h3.564zm7.26-6.314h-7.524v-3.014h7.524zm4.92 6.314 6.864-15.4h3.52l6.886 15.4h-3.74l-5.632-13.596h1.408l-5.654 13.596zm3.432-3.3.946-2.706h7.92l.968 2.706zm15.436 3.3v-15.4h2.948l9.086 11.088h-1.43v-11.088h3.52v15.4h-2.926l-9.108-11.088h1.43v11.088zm25.203.264c-1.217 0-2.339-.191-3.366-.572-1.012-.396-1.899-.953-2.662-1.672-.748-.719-1.334-1.562-1.76-2.53-.41-.968-.616-2.031-.616-3.19s.206-2.222.616-3.19c.426-.968 1.02-1.811 1.782-2.53.763-.719 1.658-1.269 2.684-1.65 1.027-.396 2.156-.594 3.388-.594 1.364 0 2.589.227 3.674.682 1.1.455 2.024 1.115 2.772 1.98l-2.288 2.112c-.557-.587-1.166-1.019-1.826-1.298-.66-.293-1.378-.44-2.156-.44-.748 0-1.43.117-2.046.352s-1.151.572-1.606 1.012c-.44.44-.784.961-1.034 1.562-.234.601-.352 1.269-.352 2.002 0 .719.118 1.379.352 1.98.25.601.594 1.129 1.034 1.584.455.44.983.777 1.584 1.012.616.235 1.291.352 2.024.352.704 0 1.386-.11 2.046-.33.675-.235 1.328-.623 1.958-1.166l2.024 2.574c-.836.631-1.811 1.115-2.926 1.452-1.1.337-2.2.506-3.3.506zm2.97-2.42v-5.786h3.256v6.248zm9.845-7.04h7.414v2.772h-7.414zm.264 6.336h8.382v2.86h-11.924v-15.4h11.638v2.86h-8.096zm-222.12 29.86v-12.1c0-1.335.396-2.398 1.188-3.19.792-.807 1.921-1.21 3.388-1.21.499 0 .975.051 1.43.154.469.103.865.264 1.188.484l-.902 2.486c-.191-.132-.403-.235-.638-.308s-.484-.11-.748-.11c-.499 0-.887.147-1.166.44-.264.279-.396.704-.396 1.276v1.1l.088 1.474v9.504zm-1.826-8.932v-2.64h8.206v2.64zm15.397 9.108c-1.261 0-2.383-.264-3.366-.792-.968-.528-1.738-1.247-2.31-2.156-.557-.924-.836-1.973-.836-3.146 0-1.188.279-2.237.836-3.146.572-.924 1.342-1.643 2.31-2.156.983-.528 2.105-.792 3.366-.792 1.247 0 2.362.264 3.344.792.983.513 1.753 1.225 2.31 2.134.558.909.836 1.965.836 3.168 0 1.173-.278 2.222-.836 3.146-.557.909-1.327 1.628-2.31 2.156-.982.528-2.097.792-3.344.792zm0-2.816c.572 0 1.086-.132 1.54-.396.455-.264.814-.638 1.078-1.122.264-.499.396-1.085.396-1.76 0-.689-.132-1.276-.396-1.76s-.623-.858-1.078-1.122c-.454-.264-.968-.396-1.54-.396s-1.085.132-1.54.396c-.454.264-.821.638-1.1 1.122-.264.484-.396 1.071-.396 1.76 0 .675.132 1.261.396 1.76.279.484.646.858 1.1 1.122.455.264.968.396 1.54.396zm8.784 2.64v-11.836h3.278v3.344l-.462-.968c.352-.836.917-1.467 1.694-1.892.778-.44 1.724-.66 2.838-.66v3.168c-.146-.015-.278-.022-.396-.022-.117-.015-.242-.022-.374-.022-.938 0-1.701.271-2.288.814-.572.528-.858 1.357-.858 2.486v5.588zm15.42-9.152-.22-6.248h2.926l-.242 6.248zm4.532 0-.22-6.248h2.926l-.242 6.248zm9.339 9.328c-1.012 0-1.987-.117-2.926-.352-.924-.249-1.657-.557-2.2-.924l1.144-2.464c.543.337 1.181.616 1.914.836.748.205 1.481.308 2.2.308.792 0 1.349-.095 1.672-.286.337-.191.506-.455.506-.792 0-.279-.132-.484-.396-.616-.249-.147-.587-.257-1.012-.33s-.895-.147-1.408-.22c-.499-.073-1.005-.169-1.518-.286-.513-.132-.983-.323-1.408-.572s-.77-.587-1.034-1.012c-.249-.425-.374-.975-.374-1.65 0-.748.213-1.408.638-1.98.44-.572 1.071-1.019 1.892-1.342.821-.337 1.804-.506 2.948-.506.807 0 1.628.088 2.464.264s1.533.433 2.09.77l-1.144 2.442c-.572-.337-1.151-.565-1.738-.682-.572-.132-1.129-.198-1.672-.198-.763 0-1.32.103-1.672.308s-.528.469-.528.792c0 .293.125.513.374.66.264.147.609.264 1.034.352s.887.169 1.386.242c.513.059 1.027.154 1.54.286s.975.323 1.386.572c.425.235.77.565 1.034.99.264.411.396.953.396 1.628 0 .733-.22 1.386-.66 1.958-.44.557-1.078.997-1.914 1.32-.821.323-1.826.484-3.014.484zm14.702 0c-.998 0-1.87-.22-2.618-.66s-1.335-1.107-1.76-2.002c-.411-.909-.616-2.053-.616-3.432 0-1.393.198-2.537.594-3.432s.968-1.562 1.716-2.002 1.642-.66 2.684-.66c1.114 0 2.112.257 2.992.77.894.499 1.598 1.203 2.112 2.112.528.909.792 1.98.792 3.212 0 1.247-.264 2.325-.792 3.234-.514.909-1.218 1.613-2.112 2.112-.88.499-1.878.748-2.992.748zm-6.996 4.092v-16.104h3.278v2.42l-.066 3.52.22 3.498v6.666zm6.402-6.908c.572 0 1.078-.132 1.518-.396.454-.264.814-.638 1.078-1.122.278-.499.418-1.085.418-1.76 0-.689-.14-1.276-.418-1.76-.264-.484-.624-.858-1.078-1.122-.44-.264-.946-.396-1.518-.396s-1.086.132-1.54.396c-.455.264-.814.638-1.078 1.122s-.396 1.071-.396 1.76c0 .675.132 1.261.396 1.76.264.484.623.858 1.078 1.122.454.264.968.396 1.54.396zm14.419 2.816c-1.261 0-2.383-.264-3.366-.792-.968-.528-1.738-1.247-2.31-2.156-.557-.924-.836-1.973-.836-3.146 0-1.188.279-2.237.836-3.146.572-.924 1.342-1.643 2.31-2.156.983-.528 2.105-.792 3.366-.792 1.247 0 2.361.264 3.344.792.983.513 1.753 1.225 2.31 2.134s.836 1.965.836 3.168c0 1.173-.279 2.222-.836 3.146-.557.909-1.327 1.628-2.31 2.156s-2.097.792-3.344.792zm0-2.816c.572 0 1.085-.132 1.54-.396s.814-.638 1.078-1.122c.264-.499.396-1.085.396-1.76 0-.689-.132-1.276-.396-1.76s-.623-.858-1.078-1.122-.968-.396-1.54-.396-1.085.132-1.54.396-.821.638-1.1 1.122c-.264.484-.396 1.071-.396 1.76 0 .675.132 1.261.396 1.76.279.484.645.858 1.1 1.122s.968.396 1.54.396zm8.784 2.64v-11.836h3.278v3.344l-.462-.968c.352-.836.917-1.467 1.694-1.892.777-.44 1.723-.66 2.838-.66v3.168c-.147-.015-.279-.022-.396-.022-.117-.015-.242-.022-.374-.022-.939 0-1.701.271-2.288.814-.572.528-.858 1.357-.858 2.486v5.588zm14.637.176c-1.393 0-2.479-.352-3.256-1.056-.777-.719-1.166-1.782-1.166-3.19v-10.384h3.432v10.34c0 .499.132.887.396 1.166.264.264.623.396 1.078.396.543 0 1.005-.147 1.386-.44l.924 2.42c-.352.249-.777.44-1.276.572-.484.117-.99.176-1.518.176zm-6.248-9.108v-2.64h8.206v2.64zm24.393-3.08c.939 0 1.775.191 2.508.572.748.367 1.335.939 1.76 1.716.425.763.638 1.745.638 2.948v6.776h-3.432v-6.248c0-.953-.213-1.657-.638-2.112-.411-.455-.997-.682-1.76-.682-.543 0-1.034.117-1.474.352-.425.22-.763.565-1.012 1.034-.235.469-.352 1.071-.352 1.804v5.852h-3.432v-11.836h3.278v3.278l-.616-.99c.425-.792 1.034-1.401 1.826-1.826s1.694-.638 2.706-.638zm13.977 12.188c-1.35 0-2.538-.264-3.564-.792-1.012-.528-1.797-1.247-2.354-2.156-.558-.924-.836-1.973-.836-3.146 0-1.188.271-2.237.814-3.146.557-.924 1.312-1.643 2.266-2.156.953-.528 2.031-.792 3.234-.792 1.158 0 2.2.249 3.124.748.938.484 1.679 1.188 2.222 2.112.542.909.814 2.002.814 3.278 0 .132-.008.286-.022.462-.015.161-.03.315-.044.462h-9.614v-2.002h7.81l-1.32.594c0-.616-.125-1.151-.374-1.606-.25-.455-.594-.807-1.034-1.056-.44-.264-.954-.396-1.54-.396-.587 0-1.108.132-1.562.396-.44.249-.785.609-1.034 1.078-.25.455-.374.997-.374 1.628v.528c0 .645.139 1.217.418 1.716.293.484.696.858 1.21 1.122.528.249 1.144.374 1.848.374.63 0 1.18-.095 1.65-.286.484-.191.924-.477 1.32-.858l1.826 1.98c-.543.616-1.225 1.093-2.046 1.43-.822.323-1.768.484-2.838.484zm10.496-.176-4.268-11.836h3.234l3.542 10.186h-1.54l3.696-10.186h2.904l3.586 10.186h-1.54l3.652-10.186h3.036l-4.29 11.836h-3.322l-3.146-8.734h1.012l-3.256 8.734zm21.707.176c-1.012 0-1.987-.117-2.926-.352-.924-.249-1.657-.557-2.2-.924l1.144-2.464c.543.337 1.181.616 1.914.836.748.205 1.482.308 2.2.308.792 0 1.35-.095 1.672-.286.338-.191.506-.455.506-.792 0-.279-.132-.484-.396-.616-.249-.147-.586-.257-1.012-.33-.425-.073-.894-.147-1.408-.22-.498-.073-1.004-.169-1.518-.286-.513-.132-.982-.323-1.408-.572-.425-.249-.77-.587-1.034-1.012-.249-.425-.374-.975-.374-1.65 0-.748.213-1.408.638-1.98.44-.572 1.071-1.019 1.892-1.342.822-.337 1.804-.506 2.948-.506.807 0 1.628.088 2.464.264s1.533.433 2.09.77l-1.144 2.442c-.572-.337-1.151-.565-1.738-.682-.572-.132-1.129-.198-1.672-.198-.762 0-1.32.103-1.672.308s-.528.469-.528.792c0 .293.125.513.374.66.264.147.609.264 1.034.352.426.088.888.169 1.386.242.514.059 1.027.154 1.54.286.514.132.976.323 1.386.572.426.235.77.565 1.034.99.264.411.396.953.396 1.628 0 .733-.22 1.386-.66 1.958-.44.557-1.078.997-1.914 1.32-.821.323-1.826.484-3.014.484zm7.42-9.328-.22-6.248h2.926l-.242 6.248zm4.532 0-.22-6.248h2.926l-.242 6.248z" fill="#353537"/><path d="m463.99 280.5c0 31.751-25.739 57.49-57.49 57.49s-57.49-25.739-57.49-57.49 25.739-57.49 57.49-57.49 57.49 25.739 57.49 57.49z" fill="#8bd2e4" stroke="#353537" stroke-width="4.02"/><path clip-rule="evenodd" d="m375 268.499v1.913c0 1.584 1.285 2.869 2.87 2.869h43.042v5.739c0 2.565 3.104 3.824 4.899 2.029l9.565-9.565c1.121-1.121 1.121-2.937 0-4.058l-9.565-9.565c-1.802-1.802-4.899-.526-4.899 2.029v5.739h-43.042c-1.585 0-2.87 1.285-2.87 2.87zm61.216 22.956c0-1.585-1.284-2.87-2.869-2.87h-43.043v-5.739c0-2.548-3.092-3.835-4.898-2.029l-9.566 9.565c-1.12 1.121-1.12 2.938 0 4.058l9.566 9.565c1.796 1.797 4.898.534 4.898-2.029v-5.739h43.043c1.585 0 2.869-1.284 2.869-2.869z" fill="#026d87" fill-rule="evenodd"/></g><g fill="#b3b8bf" stroke="#fff" stroke-width="4"><path d="m400.382 447.171v-88.68c0-2.468 1.972-4.509 4.474-4.509h3.298c2.502 0 4.474 2.041 4.474 4.509v88.68l8.364-8.905.005-.005c1.731-1.832 4.634-1.876 6.412-.072l2.281 2.313c.001.002.003.003.004.005 1.747 1.757 1.735 4.599.004 6.355l-20.019 20.304c-.002.001-.003.003-.005.004-1.748 1.787-4.599 1.775-6.345.003h-.001l-20.022-20.318c-1.747-1.757-1.735-4.6-.004-6.356h.001l2.28-2.313c.002-.001.003-.003.005-.004 1.78-1.82 4.689-1.775 6.421.075 0 0 .001.001.002.001z"/><path d="m305.877 434.453 51.086-88.483c1.234-2.137 3.962-2.919 6.128-1.668l2.857 1.649c2.166 1.251 2.854 4.004 1.62 6.142l-51.086 88.482 11.696-3.529.006-.002c2.416-.721 4.952.692 5.59 3.144l.819 3.143c0 .002.001.004.001.006.634 2.395-.798 4.851-3.175 5.506l-27.488 7.574c-.002.001-.004.001-.006.002-2.408.673-4.871-.763-5.497-3.17v-.001l-7.182-27.608c-.633-2.394.798-4.85 3.175-5.505l3.132-.863c.002 0 .004-.001.006-.001 2.451-.686 4.948.808 5.524 3.275v.002z"/><path d="m498.538 443.022-51.085-88.483c-1.235-2.137-.547-4.891 1.619-6.142l2.857-1.649c2.166-1.251 4.894-.469 6.128 1.668l51.086 88.483 2.791-11.894.002-.006c.583-2.453 3.075-3.942 5.517-3.269l3.132.863c.002 0 .004.001.006.001 2.391.649 3.801 3.116 3.18 5.502v.001l-7.185 27.593c0 .002-.001.003-.001.005-.62 2.422-3.096 3.837-5.494 3.176h-.001l-27.499-7.585c-2.391-.648-3.802-3.116-3.18-5.502l.818-3.144c.001-.002.001-.004.002-.006.632-2.465 3.174-3.881 5.598-3.146.001.001.002.001.002.001z"/></g><path d="m91.152 169h-9.486v-21.669h8.432c1.4673 0 2.728.176 3.782.527 1.0747.351 1.8807.827 2.418 1.426.9713 1.116 1.457 2.377 1.457 3.782 0 1.695-.5477 2.955-1.643 3.782-.372.289-.6303.475-.775.558-.1447.062-.403.176-.775.341 1.3433.289 2.4077.899 3.193 1.829.806.909 1.209 2.046 1.209 3.41 0 1.509-.5167 2.842-1.55 3.999-1.1987 1.343-3.286 2.015-6.262 2.015zm-4.65-12.896h2.294c1.3433 0 2.3353-.145 2.976-.434.6613-.289.992-.909.992-1.86 0-.971-.2997-1.612-.899-1.922s-1.612-.465-3.038-.465h-2.325zm0 8.804h3.317c1.3847 0 2.418-.165 3.1-.496.7027-.351 1.054-1.023 1.054-2.015 0-1.013-.372-1.674-1.116-1.984-.7233-.331-1.891-.496-3.503-.496h-2.852zm34.114-10.385c0 3.472-1.374 5.714-4.123 6.727l5.487 7.75h-5.952l-4.805-6.913h-3.348v6.913h-4.836v-21.669h8.215c3.369 0 5.766.568 7.192 1.705 1.447 1.137 2.17 2.966 2.17 5.487zm-9.207 3.379c1.653 0 2.78-.269 3.379-.806s.899-1.385.899-2.542c0-1.178-.31-1.984-.93-2.418s-1.705-.651-3.255-.651h-3.627v6.417zm30.527.155c0-1.943-.62-3.596-1.86-4.96s-2.77-2.046-4.588-2.046c-1.798 0-3.317.682-4.557 2.046s-1.86 3.017-1.86 4.96c0 1.922.62 3.565 1.86 4.929 1.24 1.343 2.759 2.015 4.557 2.015 1.818 0 3.348-.672 4.588-2.015 1.24-1.364 1.86-3.007 1.86-4.929zm1.643 7.967c-2.191 2.129-4.888 3.193-8.091 3.193-3.204 0-5.901-1.064-8.091-3.193-2.191-2.149-3.286-4.815-3.286-7.998s1.095-5.838 3.286-7.967c2.19-2.149 4.887-3.224 8.091-3.224 3.203 0 5.9 1.075 8.091 3.224 2.19 2.129 3.286 4.784 3.286 7.967s-1.096 5.849-3.286 7.998zm7.383-18.693h4.836v8.897l8.184-8.897h5.983l-8.618 9.579c.744 1.033 2.118 2.966 4.123 5.797 2.005 2.811 3.503 4.908 4.495 6.293h-5.642l-6.355-8.556-2.17 2.418v6.138h-4.836zm37.633 0v4.309h-10.788v4.464h9.703v4.123h-9.703v4.495h11.129v4.278h-15.965v-21.669zm22.236 7.192c0 3.472-1.374 5.714-4.123 6.727l5.487 7.75h-5.952l-4.805-6.913h-3.348v6.913h-4.836v-21.669h8.215c3.369 0 5.766.568 7.192 1.705 1.447 1.137 2.17 2.966 2.17 5.487zm-9.207 3.379c1.653 0 2.78-.269 3.379-.806s.899-1.385.899-2.542c0-1.178-.31-1.984-.93-2.418s-1.705-.651-3.255-.651h-3.627v6.417z" fill="#353537"/><path d="m413.209 189.404v-84.847c0-2.501-2.002-4.557-4.529-4.557h-3.371c-2.527 0-4.529 2.056-4.529 4.557v84.847l-8.629-9.158-.004-.005c-1.753-1.849-4.687-1.893-6.487-.073l-2.332 2.357c-.001.002-.003.003-.004.005-1.771 1.776-1.759 4.652-.003 6.427l20.464 20.691c.001.001.003.003.004.004 1.769 1.803 4.651 1.791 6.419.003l20.468-20.706c1.771-1.776 1.759-4.652.003-6.427l-2.332-2.357c-.001-.002-.002-.003-.004-.004-1.801-1.836-4.743-1.791-6.496.075 0 .001-.001.001-.001.002z" fill="#b3b8bf" stroke="#fff" stroke-width="4"/><path d="m358.755 37.66h-.34l.34 54.6396 47.744-26.6454z" fill="#ffd687"/><path d="m454.593 38.1505-48.093 27.5037 47.056 27.0981.056-.5093z" fill="#ffd687"/><path d="m360.141 92.6014.264 1.047h92.585l-46.491-27.9942-27.258 15.5911z" fill="#fdb836"/><path d="m406.5 65.6542 46.226 27.1076" stroke="#353537" stroke-width="2.73528"/><path d="m360.141 92.6014 46.424-26.834" stroke="#353537" stroke-width="2.73528"/><path d="m454.593 38.1505v-.4905h-95.838l47.745 32.5499z" fill="#fdb836"/><path d="m422.232 93.2051h-59.61c-1.128.0026-2.21-.447-3.004-1.2481-.794-.8012-1.234-1.8872-1.222-3.0152l.151-48.8672c0-1.4997 1.424-3.6502 3-3.6313h89.811c1.547 0 3.028 2.1694 3.018 3.6879l-.122 49.2539c-.003 1.1274-.454 2.2074-1.253 3.0019-.8.7944-1.883 1.2381-3.011 1.2331h-5.781" stroke="#353537" stroke-width="2.73528"/><path d="m359.339 38.1505 47.16 32.0594 47.594-31.7293" stroke="#353537" stroke-width="2.73528"/><path d="m70.323 55.331c3.3273 0 5.7453.651 7.254 1.953 1.5293 1.2813 2.294 3.2653 2.294 5.952 0 2.666-.7853 4.619-2.356 5.859-1.55 1.24-3.9267 1.86-7.13 1.86h-2.883v6.045h-4.836v-21.669zm.434 11.439c1.612 0 2.7073-.3203 3.286-.961.5787-.6613.868-1.612.868-2.852 0-1.2607-.3823-2.1493-1.147-2.666-.744-.5373-1.9117-.806-3.503-.806h-2.759v7.285zm30.465-4.247c0 3.472-1.3738 5.7143-4.1225 6.727l5.4865 7.75h-5.9515l-4.805-6.913h-3.348v6.913h-4.836v-21.669h8.215c3.3687 0 5.766.5683 7.192 1.705 1.4465 1.1367 2.1695 2.9657 2.1695 5.487zm-9.2065 3.379c1.6533 0 2.7797-.2687 3.379-.806s.899-1.3847.899-2.542c0-1.178-.31-1.984-.93-2.418s-1.705-.651-3.255-.651h-3.627v6.417zm30.5265.155c0-1.9427-.62-3.596-1.86-4.96s-2.769-2.046-4.588-2.046c-1.798 0-3.317.682-4.557 2.046s-1.86 3.0173-1.86 4.96c0 1.922.62 3.565 1.86 4.929 1.24 1.3433 2.759 2.015 4.557 2.015 1.819 0 3.348-.6717 4.588-2.015 1.24-1.364 1.86-3.007 1.86-4.929zm1.643 7.967c-2.191 2.1287-4.888 3.193-8.091 3.193s-5.9-1.0643-8.091-3.193c-2.191-2.1493-3.286-4.8153-3.286-7.998s1.095-5.8383 3.286-7.967c2.191-2.1493 4.888-3.224 8.091-3.224s5.9 1.0747 8.091 3.224c2.191 2.1287 3.286 4.7843 3.286 7.967s-1.095 5.8487-3.286 7.998zm15.04-18.693c3.865 0 6.831.9507 8.897 2.852 2.067 1.8807 3.1 4.5053 3.1 7.874s-1.012 6.0347-3.038 7.998c-2.004 1.9633-5.073 2.945-9.207 2.945h-7.409v-21.669zm.248 17.391c2.212 0 3.906-.558 5.084-1.674 1.199-1.116 1.798-2.7383 1.798-4.867s-.599-3.7613-1.798-4.898c-1.178-1.1573-2.996-1.736-5.456-1.736h-2.697v13.175zm21.656-1.302c.806.992 1.891 1.488 3.255 1.488s2.438-.496 3.224-1.488c.806-1.0127 1.209-2.387 1.209-4.123v-11.966h4.836v12.121c0 3.1413-.868 5.5593-2.604 7.254-1.736 1.674-3.958 2.511-6.665 2.511-2.708 0-4.94-.8473-6.696-2.542-1.736-1.6947-2.604-4.1023-2.604-7.223v-12.121h4.836v11.966c0 1.736.403 3.1103 1.209 4.123zm27.496 1.302c2.376 0 4.319-.9403 5.828-2.821l3.1 3.193c-2.46 2.7693-5.363 4.154-8.711 4.154-3.328 0-6.076-1.054-8.246-3.162-2.15-2.108-3.224-4.7637-3.224-7.967 0-3.224 1.095-5.9107 3.286-8.06 2.211-2.1493 4.908-3.224 8.091-3.224 3.554 0 6.53 1.3537 8.928 4.061l-3.007 3.41c-1.53-1.9013-3.431-2.852-5.704-2.852-1.819 0-3.379.5993-4.681 1.798-1.282 1.178-1.922 2.7797-1.922 4.805 0 2.0047.609 3.6167 1.829 4.836 1.219 1.2193 2.697 1.829 4.433 1.829zm28.378-17.391v4.309h-10.788v4.464h9.703v4.123h-9.703v4.495h11.129v4.278h-15.965v-21.669zm22.236 7.192c0 3.472-1.374 5.7143-4.123 6.727l5.487 7.75h-5.952l-4.805-6.913h-3.348v6.913h-4.836v-21.669h8.215c3.369 0 5.766.5683 7.192 1.705 1.447 1.1367 2.17 2.9657 2.17 5.487zm-9.207 3.379c1.653 0 2.78-.2687 3.379-.806s.899-1.3847.899-2.542c0-1.178-.31-1.984-.93-2.418s-1.705-.651-3.255-.651h-3.627v6.417z" fill="#353537"/></svg>