<svg fill="none" height="833" viewBox="0 0 760 833" width="760" xmlns="http://www.w3.org/2000/svg" xmlns:xlink="http://www.w3.org/1999/xlink"><clipPath id="a"><path d="m113 507h564v215h-564z"/></clipPath><clipPath id="b"><path d="m498 560h168v151h-168z"/></clipPath><clipPath id="c"><path d="m338 560h168v151h-168z"/></clipPath><clipPath id="d"><path d="m178 560h168v151h-168z"/></clipPath><clipPath id="e"><path d="m113 200h564v167h-564z"/></clipPath><clipPath id="f"><path d="m82 386h599v93h-599z"/></clipPath><clipPath id="g"><path d="m506 390h175v62h-175z"/></clipPath><clipPath id="h"><path d="m334 420h126v59h-126z"/></clipPath><clipPath id="i"><path d="m82 417h191v55h-191z"/></clipPath><path d="m0 0h760v833h-760z" fill="#fff"/><rect fill="#dee7ee" height="661" rx="18" stroke="#353537" stroke-width="4" width="638" x="63" y="123"/><path d="m130.579 763.6h4.644l-4.023-6.939c2.079-1.053 3.483-3.159 3.483-5.481 0-3.591-2.889-6.48-6.48-6.48h-7.56v18.9h4.32v-6.21h2.052zm-5.616-14.85h3.24c1.188 0 2.16 1.053 2.16 2.43s-.972 2.43-2.16 2.43h-3.24zm21.272 1.35v1.269c-.891-1.026-2.214-1.647-4.023-1.647-3.537 0-6.453 3.105-6.453 7.128s2.916 7.128 6.453 7.128c1.809 0 3.132-.621 4.023-1.647v1.269h4.05v-13.5zm-3.213 10.044c-1.863 0-3.213-1.269-3.213-3.294s1.35-3.294 3.213-3.294 3.213 1.269 3.213 3.294-1.35 3.294-3.213 3.294zm18.307-10.422c-1.809 0-3.132.621-4.023 1.647v-6.669h-4.05v18.9h4.05v-1.269c.891 1.026 2.214 1.647 4.023 1.647 3.537 0 6.453-3.105 6.453-7.128s-2.916-7.128-6.453-7.128zm-.81 10.422c-1.863 0-3.213-1.269-3.213-3.294s1.35-3.294 3.213-3.294 3.213 1.269 3.213 3.294-1.35 3.294-3.213 3.294zm17.632-10.422c-1.809 0-3.132.621-4.023 1.647v-6.669h-4.05v18.9h4.05v-1.269c.891 1.026 2.214 1.647 4.023 1.647 3.537 0 6.453-3.105 6.453-7.128s-2.916-7.128-6.453-7.128zm-.81 10.422c-1.863 0-3.213-1.269-3.213-3.294s1.35-3.294 3.213-3.294 3.213 1.269 3.213 3.294-1.35 3.294-3.213 3.294zm11.585-11.232c1.323 0 2.43-1.107 2.43-2.43s-1.107-2.43-2.43-2.43-2.43 1.107-2.43 2.43 1.107 2.43 2.43 2.43zm-2.025 14.688h4.05v-13.5h-4.05zm14.924-9.612v-3.888h-2.781v-3.78l-4.05 1.215v2.565h-2.16v3.888h2.16v4.779c0 3.78 1.539 5.373 6.831 4.833v-3.672c-1.782.108-2.781 0-2.781-1.161v-4.779zm21.592-9.288h-4.32l-5.13 8.397-5.13-8.397h-4.32v18.9h4.32v-10.989l4.887 8.019h.486l4.887-8.019v10.989h4.32zm22.094 9.45c0-5.562-4.401-9.828-9.828-9.828s-9.828 4.266-9.828 9.828 4.401 9.828 9.828 9.828c1.593 0 3.105-.378 4.428-1.026l2.025 2.133 3.105-2.754-1.89-1.998c1.35-1.674 2.16-3.807 2.16-6.183zm-9.828 5.616c-3.078 0-5.508-2.241-5.508-5.616s2.43-5.616 5.508-5.616 5.508 2.241 5.508 5.616c0 1.161-.297 2.187-.783 3.051l-3.024-3.213-3.105 2.754 2.727 2.889c-.432.081-.864.135-1.323.135z" fill="#030303"/><path clip-rule="evenodd" d="m83.2637 739.456v26.586c.0232.046.0397.095.049.146.0828.482.4739.854.9625.914h.2881 24.8707c.142.002.285-.014.423-.049.441-.088.78-.441.846-.883.006-.061.006-.122 0-.183v-15.063c.006-.271-.09-.534-.27-.737-.214-.245-.526-.383-.852-.378h-9.024c-.116.001-.231-.013-.343-.043-.3341-.083-.5794-.366-.6131-.707v-.243-9.22c.0113-.306-.0888-.607-.282-.847-.201-.247-.4914-.407-.8092-.444l-.0736-.031h-3.4391l-.0858.031c-.5585.065-1.0007.499-1.0728 1.054v.304 9.177c.0122.103.0122.208 0 .311-.0938.396-.449.676-.8582.676h-1.6368-1.3058c-.2548.016-.5046-.076-.6886-.252s-.2856-.42-.2799-.674v-1.018-.932-6.465-.969c.0108-.592-.4082-1.106-.9932-1.218l-.19-.043h-3.4146l-.0858.03c-.5487.062-.988.482-1.0728 1.024-.0108.05-.0272.1-.049.146zm17.7413 16.227h.208l2.648.006c.806.032 1.444.686 1.453 1.487v2.583c-.003.714-.519 1.324-1.226 1.451-.096.008-.192.008-.288 0h-2.526c-.671-.006-1.256-.454-1.434-1.097-.0384-.133-.059-.27-.0613-.408v-2.554c-.0055-.72.5123-1.341 1.2263-1.468z" fill="#f79420" fill-rule="evenodd"/><path d="m83.2637 766.042h-.8653v.205l.092.183zm0-26.586-.7843-.365-.081.174v.191zm.049 26.732.8529-.147-.0019-.01zm.9625.914-.1059.859.0527.006h.0532zm25.1588 0 .013-.865h-.013zm.423-.049-.169-.849-.02.005-.021.005zm.846-.883.856.128.003-.021.002-.021zm0-.183h-.865v.043l.004.043zm0-15.063-.865-.02v.01.01zm-.27-.737-.65.57.002.003zm-.852-.378v.865h.012zm-9.024 0v-.865h-.009zm-.343-.043.22-.836-.011-.003zm-.6131-.707h-.8653v.043l.0042.043zm0-9.463-.8647-.031-.0006.016v.015zm-.282-.847.6736-.543-.0018-.002zm-.8092-.444-.3311.799.1106.046.1188.014zm-.0736-.031.3311-.799-.159-.066h-.1721zm-3.4391 0v-.865h-.149l-.1404.05zm-.0858.031.1004.859.097-.011.0921-.033zm-1.0728 1.054-.858-.112-.0072.056v.056zm0 9.481h-.8652v.051l.0059.05zm0 .311.842.199.0115-.048.0058-.05zm-.8582.676v.865h.001zm-2.9426 0v-.865h-.0261l-.026.002zm-.6886-.252-.598.626zm-.2799-.674.865.019.0002-.009v-.01zm0-9.384-.8652-.016-.0001.008v.008zm-.9932-1.218-.1894.844.013.003.0131.002zm-.19-.043.1895-.844-.0936-.021h-.0959zm-3.4146 0v-.865h-.149l-.1404.05zm-.0858.03.0973.86.0986-.011.0936-.033zm-1.0728 1.024.8461.181.0051-.023.0037-.024zm17.9003 16.373.002-.865h-.002zm-.208 0v-.865h-.077l-.075.013zm2.856.006.035-.865h-.016-.017zm1.453 1.487h.866v-.01zm0 2.583.866.005v-.005zm-1.226 1.451.078.861.038-.003.036-.007zm-.288 0 .078-.862-.039-.004h-.039zm-2.526 0-.007.865h.007zm-1.434-1.097.834-.231-.003-.009zm-.0613-.408h-.8653v.007l.0001.007zm0-2.554h.8653v-.006zm-15.6498 8.891v-26.586h-1.7305v26.586zm.0348-.011c-.0241-.131-.0668-.258-.1267-.377l-1.5466.776c-.0135-.027-.0232-.056-.0287-.086zm.2174.212c-.1128-.014-.1979-.098-.2156-.202l-1.7056.293c.148.862.8451 1.52 1.7094 1.627zm.1822-.006h-.2881v1.73h.2881zm24.8707 0h-24.8707v1.73h24.8707zm.213-.023c-.065.016-.132.024-.2.023l-.026 1.73c.217.003.434-.022.646-.074zm.2-.173c-.012.079-.073.146-.159.163l.337 1.698c.797-.158 1.413-.798 1.534-1.604zm-.005.032v.01l1.722.173c.012-.118.012-.237 0-.356zm-.004-15.149v15.063h1.73v-15.063zm-.053-.164c.036.04.054.092.053.144l1.73.04c.011-.489-.163-.964-.487-1.33zm-.192-.086c.074-.001.143.03.19.083l1.3-1.141c-.382-.435-.936-.681-1.514-.672zm-9.036 0h9.024v-1.73h-9.024zm-.5635-.071c.1865.049.3795.073.5725.071l-.018-1.73c-.038 0-.077-.005-.114-.014zm-1.2537-1.458c.0699.707.5786 1.29 1.2652 1.461l.418-1.679c.018.004.036.021.039.047zm-.0042-.329v.243h1.7304v-.243zm0-9.22v9.22h1.7304v-9.22zm-.0903-.303c.0627.077.0945.174.0909.272l1.7298.063c.019-.516-.15-1.02-.4736-1.422zm-.2373-.129c.0951.011.1807.059.2391.131l1.3436-1.091c-.3435-.423-.8388-.695-1.3793-.759zm-.3029-.09.0735.03.6622-1.599-.0736-.03zm-3.1081.065h3.4391v-1.73h-3.4391zm.2037-.019.0858-.03-.5789-1.631-.0858.03zm-.5042.35c.0204-.157.1475-.286.3151-.306l-.2008-1.719c-.9493.111-1.7068.851-1.8304 1.802zm.0072.193v-.304h-1.7305v.304zm0 9.177v-9.177h-1.7305v9.177zm-.006.412c.0201-.17.0201-.343 0-.513l-1.7186.202c.0043.036.0043.073 0 .108zm-1.7165 1.44c.8065 0 1.5123-.553 1.6992-1.342l-1.6839-.399c-.0004.002-.0008.003-.0012.003-.0005.001-.0015.002-.0033.004-.0017.001-.0037.002-.0056.003-.0017 0-.0039.001-.0072.001zm-1.6378 0h1.6368v-1.73h-1.6368zm-1.3058 0h1.3058v-1.73h-1.3058zm-1.2866-.491c.3587.343.8443.52 1.3388.49l-.1043-1.727c-.0153 0-.0292-.005-.0385-.014zm-.547-1.319c-.011.497.1881.975.547 1.319l1.196-1.251c-.0092-.009-.0131-.02-.0129-.03zm-.0002-.999v1.018h1.7305v-1.018zm0-.932v.932h1.7305v-.932zm0-6.465v6.465h1.7305v-6.465zm0-.969v.969h1.7305v-.969zm-.2912-.369c.1753.034.2944.186.2913.353l1.7303.032c.0186-1.017-.7003-1.893-1.6949-2.084zm-.2162-.048.1901.043.3789-1.689-.19-.042zm-3.2251.021h3.4146v-1.73h-3.4146zm.2037-.019.0858-.031-.5789-1.63-.0858.03zm-.5074.342c.0241-.155.1505-.279.3152-.298l-.1946-1.719c-.9328.105-1.6848.819-1.8304 1.749zm-.1197.378c.0493-.106.0865-.217.1109-.331l-1.6922-.362c.0029-.013.0072-.026.0128-.038zm17.1651 14.996h-.208v1.73h.208zm2.65.006-2.648-.006-.004 1.73 2.648.006zm2.317 2.342c-.015-1.266-1.023-2.291-2.284-2.342l-.069 1.73c.349.014.618.296.622.632zm0 2.593v-2.583h-1.731v2.583zm-1.94 2.302c1.115-.199 1.934-1.162 1.94-2.297l-1.731-.009c-.001.293-.213.549-.513.603zm-.518.01c.148.014.297.014.444 0l-.156-1.723c-.044.004-.088.004-.132 0zm-2.448.004h2.526v-1.731h-2.526zm-2.2679-1.731c.2818 1.018 1.2069 1.721 2.2609 1.731l.015-1.731c-.288-.002-.534-.194-.608-.462zm-.0926-.625c.0037.215.0357.428.0951.634l1.6624-.48c-.017-.06-.026-.121-.027-.183zm-.0001-2.568v2.554h1.7306v-2.554zm1.9396-2.32c-1.1257.201-1.9483 1.181-1.9396 2.327l1.7306-.013c-.002-.296.21-.556.513-.61z" fill="#444c56"/><g clip-path="url(#a)"><rect fill="#fff" height="215" rx="18" width="564" x="113" y="507"/><g clip-path="url(#b)"><rect fill="#8bd2e4" height="105.436" rx="8.772" stroke="#353537" stroke-width="2.924" width="106.726" x="528.462" y="561.462"/><g fill="#fff"><rect height="13" rx="2.924" width="90" x="537" y="575"/><rect height="13" rx="2.924" width="90" x="537" y="597"/><rect height="13" rx="2.924" width="90" x="537" y="641"/><rect height="13" rx="2.924" width="90" x="537" y="619"/></g><path d="m559.769 683.336c0 1.163-.299 2.208-.896 3.136-.587.928-1.381 1.621-2.384 2.08.096.16.245.299.448.416.213.107.432.16.656.16s.443-.037.656-.112c.213-.064.384-.144.512-.24.277-.224.475-.443.592-.656l1.296 1.552c-.917.971-2.064 1.456-3.44 1.456-.64 0-1.269-.176-1.888-.528s-1.093-.848-1.424-1.488c-1.653 0-3.045-.549-4.176-1.648-1.131-1.109-1.696-2.485-1.696-4.128s.565-3.013 1.696-4.112c1.131-1.109 2.523-1.664 4.176-1.664s3.045.555 4.176 1.664c1.131 1.099 1.696 2.469 1.696 4.112zm-2.544.016c0-1.003-.32-1.856-.96-2.56s-1.429-1.056-2.368-1.056c-.928 0-1.712.352-2.352 1.056s-.96 1.557-.96 2.56c0 .992.32 1.84.96 2.544.64.693 1.424 1.04 2.352 1.04.939 0 1.728-.347 2.368-1.04.64-.704.96-1.552.96-2.544zm9.986 1.68v-4.64h2.416v8.608h-2.416v-1.136c-.597.843-1.37 1.264-2.32 1.264-.938 0-1.728-.293-2.368-.88-.64-.597-.96-1.477-.96-2.64v-5.216h2.416v4.688c0 1.323.486 1.984 1.456 1.984.48 0 .896-.171 1.248-.512.352-.352.528-.859.528-1.52zm12.139 2.72c-.971.917-2.112 1.376-3.424 1.376-1.302 0-2.379-.4-3.232-1.2-.854-.811-1.28-1.893-1.28-3.248s.432-2.432 1.296-3.232c.874-.8 1.904-1.2 3.088-1.2s2.186.357 3.008 1.072c.832.715 1.248 1.696 1.248 2.944v1.28h-6.272c.074.469.32.853.736 1.152s.885.448 1.408.448c.842 0 1.536-.283 2.08-.848zm-1.728-3.92c-.054-.512-.246-.907-.576-1.184-.331-.277-.736-.416-1.216-.416-.47 0-.902.144-1.296.432-.395.288-.624.677-.688 1.168zm9.714 1.2v-4.64h2.416v8.608h-2.416v-1.136c-.597.843-1.37 1.264-2.32 1.264-.938 0-1.728-.293-2.368-.88-.64-.597-.96-1.477-.96-2.64v-5.216h2.416v4.688c0 1.323.486 1.984 1.456 1.984.48 0 .896-.171 1.248-.512.352-.352.528-.859.528-1.52zm12.139 2.72c-.971.917-2.112 1.376-3.424 1.376-1.302 0-2.379-.4-3.232-1.2-.854-.811-1.28-1.893-1.28-3.248s.432-2.432 1.296-3.232c.874-.8 1.904-1.2 3.088-1.2s2.186.357 3.008 1.072c.832.715 1.248 1.696 1.248 2.944v1.28h-6.272c.074.469.32.853.736 1.152s.885.448 1.408.448c.842 0 1.536-.283 2.08-.848zm-1.728-3.92c-.054-.512-.246-.907-.576-1.184-.331-.277-.736-.416-1.216-.416-.47 0-.902.144-1.296.432-.395.288-.624.677-.688 1.168zm13.757 2.96c1.227 0 2.23-.485 3.008-1.456l1.6 1.648c-1.269 1.429-2.768 2.144-4.496 2.144-1.717 0-3.136-.544-4.256-1.632-1.109-1.088-1.664-2.459-1.664-4.112 0-1.664.566-3.051 1.696-4.16 1.142-1.109 2.534-1.664 4.176-1.664 1.835 0 3.371.699 4.608 2.096l-1.552 1.76c-.789-.981-1.77-1.472-2.944-1.472-.938 0-1.744.309-2.416.928-.661.608-.992 1.435-.992 2.48 0 1.035.315 1.867.944 2.496.63.629 1.392.944 2.288.944z" fill="#353537"/><path d="m523.519 705.662c0 .737-.275 1.33-.826 1.778-.541.448-1.232.672-2.072.672-.56 0-1.143-.098-1.75-.294-.606-.205-1.152-.504-1.638-.896l.924-1.316c.784.607 1.62.91 2.506.91.271 0 .486-.051.644-.154.159-.112.238-.257.238-.434s-.112-.341-.336-.49c-.214-.149-.532-.289-.952-.42-.41-.131-.728-.243-.952-.336-.214-.093-.462-.229-.742-.406-.569-.355-.854-.877-.854-1.568 0-.7.28-1.269.84-1.708s1.284-.658 2.17-.658c.887 0 1.774.299 2.66.896l-.784 1.4c-.653-.448-1.306-.672-1.96-.672-.644 0-.966.177-.966.532 0 .196.103.35.308.462.206.112.546.243 1.022.392s.812.266 1.008.35c.206.075.448.196.728.364.523.317.784.849.784 1.596zm4.055-3.682v3.374c0 .289.075.518.224.686.15.159.327.238.532.238.392 0 .724-.177.994-.532l.784 1.47c-.653.597-1.344.896-2.072.896-.718 0-1.33-.238-1.834-.714-.494-.476-.742-1.125-.742-1.946v-3.472h-.882v-1.512h.882v-2.254h2.114v2.254h1.82v1.512zm5.258 2.254c0 .616.173 1.12.518 1.512.355.383.803.574 1.344.574.551 0 .999-.191 1.344-.574.355-.392.532-.896.532-1.512s-.177-1.12-.532-1.512c-.345-.392-.793-.588-1.344-.588-.541 0-.989.196-1.344.588-.345.392-.518.896-.518 1.512zm5.852 0c0 1.092-.378 2.011-1.134 2.758s-1.708 1.12-2.856 1.12c-1.138 0-2.086-.373-2.842-1.12s-1.134-1.666-1.134-2.758.378-2.011 1.134-2.758c.756-.756 1.704-1.134 2.842-1.134 1.148 0 2.1.378 2.856 1.134.756.747 1.134 1.666 1.134 2.758zm5.522-1.918c-.625 0-1.092.224-1.4.672-.308.439-.462 1.022-.462 1.75v3.262h-2.1v-7.532h2.1v.994c.271-.308.607-.569 1.008-.784.411-.215.826-.327 1.246-.336l.014 1.974zm8.318 4.592c-.849.803-1.848 1.204-2.996 1.204-1.139 0-2.081-.35-2.828-1.05-.747-.709-1.12-1.657-1.12-2.842s.378-2.128 1.134-2.828c.765-.7 1.666-1.05 2.702-1.05s1.913.313 2.632.938c.728.625 1.092 1.484 1.092 2.576v1.12h-5.488c.065.411.28.747.644 1.008s.775.392 1.232.392c.737 0 1.344-.247 1.82-.742zm-1.512-3.43c-.047-.448-.215-.793-.504-1.036s-.644-.364-1.064-.364c-.411 0-.789.126-1.134.378s-.546.593-.602 1.022zm3.586 6.37v-1.218h8.204v1.218zm16.53-1.848h-1.974v-.91c-.541.681-1.213 1.022-2.016 1.022-.793 0-1.46-.229-2.002-.686-.541-.467-.812-1.083-.812-1.848 0-.775.28-1.353.84-1.736s1.326-.574 2.296-.574h1.568v-.042c0-.803-.424-1.204-1.274-1.204-.364 0-.751.075-1.162.224-.401.14-.742.317-1.022.532l-.938-1.358c.99-.719 2.119-1.078 3.388-1.078.915 0 1.662.229 2.24.686.579.457.868 1.181.868 2.17zm-2.114-2.87v-.364h-1.316c-.84 0-1.26.261-1.26.784 0 .271.098.481.294.63.206.14.495.21.868.21.374 0 .7-.112.98-.336.29-.233.434-.541.434-.924zm9.307-1.05c0-.607-.168-1.083-.504-1.428s-.752-.518-1.246-.518c-.495 0-.924.173-1.288.518-.355.345-.532.817-.532 1.414s.172 1.083.518 1.456c.354.364.784.546 1.288.546s.924-.182 1.26-.546.504-.845.504-1.442zm.294 2.646c-.663.737-1.489 1.106-2.478 1.106-.98 0-1.811-.331-2.492-.994-.672-.672-1.008-1.563-1.008-2.674 0-1.12.345-2.035 1.036-2.744.7-.719 1.498-1.078 2.394-1.078s1.638.369 2.226 1.106v-.994h2.1v6.566c0 .672-.117 1.269-.35 1.792-.234.523-.546.933-.938 1.232-.775.616-1.69.924-2.744.924-.56 0-1.134-.093-1.722-.28-.579-.177-1.088-.434-1.526-.77l.812-1.582c.69.523 1.418.784 2.184.784.774 0 1.386-.191 1.834-.574s.672-.989.672-1.82zm7.728-4.41c-.626 0-1.092.224-1.4.672-.308.439-.462 1.022-.462 1.75v3.262h-2.1v-7.532h2.1v.994c.27-.308.606-.569 1.008-.784.41-.215.826-.327 1.246-.336l.014 1.974zm8.318 4.592c-.85.803-1.848 1.204-2.996 1.204-1.139 0-2.082-.35-2.828-1.05-.747-.709-1.12-1.657-1.12-2.842s.378-2.128 1.134-2.828c.765-.7 1.666-1.05 2.702-1.05s1.913.313 2.632.938c.728.625 1.092 1.484 1.092 2.576v1.12h-5.488c.065.411.28.747.644 1.008s.774.392 1.232.392c.737 0 1.344-.247 1.82-.742zm-1.512-3.43c-.047-.448-.215-.793-.504-1.036-.29-.243-.644-.364-1.064-.364-.411 0-.789.126-1.134.378-.346.252-.546.593-.602 1.022zm10.166 3.43c-.849.803-1.848 1.204-2.996 1.204-1.139 0-2.081-.35-2.828-1.05-.747-.709-1.12-1.657-1.12-2.842s.378-2.128 1.134-2.828c.765-.7 1.666-1.05 2.702-1.05s1.913.313 2.632.938c.728.625 1.092 1.484 1.092 2.576v1.12h-5.488c.065.411.28.747.644 1.008s.775.392 1.232.392c.737 0 1.344-.247 1.82-.742zm-1.512-3.43c-.047-.448-.215-.793-.504-1.036s-.644-.364-1.064-.364c-.411 0-.789.126-1.134.378s-.546.593-.602 1.022zm10.558.462v4.06h-2.114v-4.116c0-.597-.093-1.036-.28-1.316-.177-.28-.471-.42-.882-.42-.401 0-.76.154-1.078.462-.308.299-.462.742-.462 1.33v4.06h-2.1v-7.532h2.1v.854c.579-.653 1.242-.98 1.988-.98.476 0 .906.14 1.288.42.392.28.686.621.882 1.022.29-.457.677-.812 1.162-1.064.495-.252.99-.378 1.484-.378.887 0 1.601.266 2.142.798.542.523.812 1.283.812 2.282v4.578h-2.114v-4.116c0-1.157-.424-1.736-1.274-1.736-.42 0-.784.154-1.092.462-.308.299-.462.742-.462 1.33zm13.376 2.968c-.85.803-1.848 1.204-2.996 1.204-1.139 0-2.082-.35-2.828-1.05-.747-.709-1.12-1.657-1.12-2.842s.378-2.128 1.134-2.828c.765-.7 1.666-1.05 2.702-1.05s1.913.313 2.632.938c.728.625 1.092 1.484 1.092 2.576v1.12h-5.488c.065.411.28.747.644 1.008s.774.392 1.232.392c.737 0 1.344-.247 1.82-.742zm-1.512-3.43c-.047-.448-.215-.793-.504-1.036-.29-.243-.644-.364-1.064-.364-.411 0-.789.126-1.134.378-.346.252-.546.593-.602 1.022zm5.742.322v4.2h-2.1v-7.532h2.1v.84c.635-.644 1.349-.966 2.142-.966s1.456.28 1.988.84c.541.56.812 1.307.812 2.24v4.578h-2.1v-4.256c0-1.157-.425-1.736-1.274-1.736-.42 0-.789.154-1.106.462-.308.299-.462.742-.462 1.33zm9.238-1.82v3.374c0 .289.075.518.224.686.149.159.327.238.532.238.392 0 .723-.177.994-.532l.784 1.47c-.653.597-1.344.896-2.072.896-.719 0-1.33-.238-1.834-.714-.495-.476-.742-1.125-.742-1.946v-3.472h-.882v-1.512h.882v-2.254h2.114v2.254h1.82v1.512zm9.33 3.682c0 .737-.275 1.33-.826 1.778-.541.448-1.232.672-2.072.672-.56 0-1.143-.098-1.75-.294-.607-.205-1.153-.504-1.638-.896l.924-1.316c.784.607 1.619.91 2.506.91.271 0 .485-.051.644-.154.159-.112.238-.257.238-.434s-.112-.341-.336-.49c-.215-.149-.532-.289-.952-.42-.411-.131-.728-.243-.952-.336-.215-.093-.462-.229-.742-.406-.569-.355-.854-.877-.854-1.568 0-.7.28-1.269.84-1.708s1.283-.658 2.17-.658 1.773.299 2.66.896l-.784 1.4c-.653-.448-1.307-.672-1.96-.672-.644 0-.966.177-.966.532 0 .196.103.35.308.462s.546.243 1.022.392.812.266 1.008.35c.205.075.448.196.728.364.523.317.784.849.784 1.596z" fill="#353537"/></g><g clip-path="url(#c)"><rect fill="#8bd2e4" height="105.436" rx="8.772" stroke="#353537" stroke-width="2.924" width="106.726" x="368.462" y="561.462"/><g fill="#fff"><rect height="13" rx="2.924" width="90" x="377" y="575"/><rect height="13" rx="2.924" width="90" x="377" y="597"/><rect height="13" rx="2.924" width="90" x="377" y="641"/><rect height="13" rx="2.924" width="90" x="377" y="619"/></g><path d="m400.113 683.336c0 1.163-.299 2.208-.896 3.136-.587.928-1.382 1.621-2.384 2.08.096.16.245.299.448.416.213.107.432.16.656.16s.442-.037.656-.112c.213-.064.384-.144.512-.24.277-.224.474-.443.592-.656l1.296 1.552c-.918.971-2.064 1.456-3.44 1.456-.64 0-1.27-.176-1.888-.528-.619-.352-1.094-.848-1.424-1.488-1.654 0-3.046-.549-4.176-1.648-1.131-1.109-1.696-2.485-1.696-4.128s.565-3.013 1.696-4.112c1.13-1.109 2.522-1.664 4.176-1.664 1.653 0 3.045.555 4.176 1.664 1.13 1.099 1.696 2.469 1.696 4.112zm-2.544.016c0-1.003-.32-1.856-.96-2.56s-1.43-1.056-2.368-1.056c-.928 0-1.712.352-2.352 1.056s-.96 1.557-.96 2.56c0 .992.32 1.84.96 2.544.64.693 1.424 1.04 2.352 1.04.938 0 1.728-.347 2.368-1.04.64-.704.96-1.552.96-2.544zm9.986 1.68v-4.64h2.416v8.608h-2.416v-1.136c-.597.843-1.37 1.264-2.32 1.264-.938 0-1.728-.293-2.368-.88-.64-.597-.96-1.477-.96-2.64v-5.216h2.416v4.688c0 1.323.486 1.984 1.456 1.984.48 0 .896-.171 1.248-.512.352-.352.528-.859.528-1.52zm12.139 2.72c-.971.917-2.112 1.376-3.424 1.376-1.302 0-2.379-.4-3.232-1.2-.854-.811-1.28-1.893-1.28-3.248s.432-2.432 1.296-3.232c.874-.8 1.904-1.2 3.088-1.2s2.186.357 3.008 1.072c.832.715 1.248 1.696 1.248 2.944v1.28h-6.272c.074.469.32.853.736 1.152s.885.448 1.408.448c.842 0 1.536-.283 2.08-.848zm-1.728-3.92c-.054-.512-.246-.907-.576-1.184-.331-.277-.736-.416-1.216-.416-.47 0-.902.144-1.296.432-.395.288-.624.677-.688 1.168zm9.714 1.2v-4.64h2.416v8.608h-2.416v-1.136c-.597.843-1.37 1.264-2.32 1.264-.938 0-1.728-.293-2.368-.88-.64-.597-.96-1.477-.96-2.64v-5.216h2.416v4.688c0 1.323.486 1.984 1.456 1.984.48 0 .896-.171 1.248-.512.352-.352.528-.859.528-1.52zm12.139 2.72c-.971.917-2.112 1.376-3.424 1.376-1.302 0-2.379-.4-3.232-1.2-.854-.811-1.28-1.893-1.28-3.248s.432-2.432 1.296-3.232c.874-.8 1.904-1.2 3.088-1.2s2.186.357 3.008 1.072c.832.715 1.248 1.696 1.248 2.944v1.28h-6.272c.074.469.32.853.736 1.152s.885.448 1.408.448c.842 0 1.536-.283 2.08-.848zm-1.728-3.92c-.054-.512-.246-.907-.576-1.184-.331-.277-.736-.416-1.216-.416-.47 0-.902.144-1.296.432-.395.288-.624.677-.688 1.168zm13.517 5.168h-4.896v-11.184h4.352c.757 0 1.408.091 1.952.272.555.181.971.427 1.248.736.501.576.752 1.227.752 1.952 0 .875-.283 1.525-.848 1.952-.192.149-.325.245-.4.288-.075.032-.208.091-.4.176.693.149 1.243.464 1.648.944.416.469.624 1.056.624 1.76 0 .779-.267 1.467-.8 2.064-.619.693-1.696 1.04-3.232 1.04zm-2.4-6.656h1.184c.693 0 1.205-.075 1.536-.224.341-.149.512-.469.512-.96 0-.501-.155-.832-.464-.992s-.832-.24-1.568-.24h-1.2zm0 4.544h1.712c.715 0 1.248-.085 1.6-.256.363-.181.544-.528.544-1.04 0-.523-.192-.864-.576-1.024-.373-.171-.976-.256-1.808-.256h-1.472z" fill="#353537"/><path d="m373.906 708h-1.974v-.91c-.542.681-1.214 1.022-2.016 1.022-.794 0-1.461-.229-2.002-.686-.542-.467-.812-1.083-.812-1.848 0-.775.28-1.353.84-1.736s1.325-.574 2.296-.574h1.568v-.042c0-.803-.425-1.204-1.274-1.204-.364 0-.752.075-1.162.224-.402.14-.742.317-1.022.532l-.938-1.358c.989-.719 2.118-1.078 3.388-1.078.914 0 1.661.229 2.24.686.578.457.868 1.181.868 2.17zm-2.114-2.87v-.364h-1.316c-.84 0-1.26.261-1.26.784 0 .271.098.481.294.63.205.14.494.21.868.21.373 0 .7-.112.98-.336.289-.233.434-.541.434-.924zm6.128 2.87h-2.1v-10.388h2.1zm4.088 0h-2.1v-10.388h2.1zm1.932 1.848v-1.218h8.204v1.218zm16.53-1.848h-1.974v-.91c-.541.681-1.213 1.022-2.016 1.022-.793 0-1.461-.229-2.002-.686-.541-.467-.812-1.083-.812-1.848 0-.775.28-1.353.84-1.736s1.325-.574 2.296-.574h1.568v-.042c0-.803-.425-1.204-1.274-1.204-.364 0-.751.075-1.162.224-.401.14-.742.317-1.022.532l-.938-1.358c.989-.719 2.119-1.078 3.388-1.078.915 0 1.661.229 2.24.686s.868 1.181.868 2.17zm-2.114-2.87v-.364h-1.316c-.84 0-1.26.261-1.26.784 0 .271.098.481.294.63.205.14.495.21.868.21s.7-.112.98-.336c.289-.233.434-.541.434-.924zm9.307-1.05c0-.607-.168-1.083-.504-1.428s-.752-.518-1.246-.518c-.495 0-.924.173-1.288.518-.355.345-.532.817-.532 1.414s.172 1.083.518 1.456c.354.364.784.546 1.288.546s.924-.182 1.26-.546.504-.845.504-1.442zm.294 2.646c-.663.737-1.489 1.106-2.478 1.106-.98 0-1.811-.331-2.492-.994-.672-.672-1.008-1.563-1.008-2.674 0-1.12.345-2.035 1.036-2.744.7-.719 1.498-1.078 2.394-1.078s1.638.369 2.226 1.106v-.994h2.1v6.566c0 .672-.117 1.269-.35 1.792-.234.523-.546.933-.938 1.232-.775.616-1.69.924-2.744.924-.56 0-1.134-.093-1.722-.28-.579-.177-1.088-.434-1.526-.77l.812-1.582c.69.523 1.418.784 2.184.784.774 0 1.386-.191 1.834-.574s.672-.989.672-1.82zm7.728-4.41c-.626 0-1.092.224-1.4.672-.308.439-.462 1.022-.462 1.75v3.262h-2.1v-7.532h2.1v.994c.27-.308.606-.569 1.008-.784.41-.215.826-.327 1.246-.336l.014 1.974zm8.317 4.592c-.849.803-1.848 1.204-2.996 1.204-1.138 0-2.081-.35-2.828-1.05-.746-.709-1.12-1.657-1.12-2.842s.378-2.128 1.134-2.828c.766-.7 1.666-1.05 2.702-1.05s1.914.313 2.632.938c.728.625 1.092 1.484 1.092 2.576v1.12h-5.488c.066.411.28.747.644 1.008s.775.392 1.232.392c.738 0 1.344-.247 1.82-.742zm-1.512-3.43c-.046-.448-.214-.793-.504-1.036-.289-.243-.644-.364-1.064-.364-.41 0-.788.126-1.134.378-.345.252-.546.593-.602 1.022zm10.167 3.43c-.85.803-1.848 1.204-2.996 1.204-1.139 0-2.082-.35-2.828-1.05-.747-.709-1.12-1.657-1.12-2.842s.378-2.128 1.134-2.828c.765-.7 1.666-1.05 2.702-1.05s1.913.313 2.632.938c.728.625 1.092 1.484 1.092 2.576v1.12h-5.488c.065.411.28.747.644 1.008s.774.392 1.232.392c.737 0 1.344-.247 1.82-.742zm-1.512-3.43c-.047-.448-.215-.793-.504-1.036-.29-.243-.644-.364-1.064-.364-.411 0-.789.126-1.134.378-.346.252-.546.593-.602 1.022zm10.558.462v4.06h-2.114v-4.116c0-.597-.093-1.036-.28-1.316-.177-.28-.471-.42-.882-.42-.401 0-.761.154-1.078.462-.308.299-.462.742-.462 1.33v4.06h-2.1v-7.532h2.1v.854c.579-.653 1.241-.98 1.988-.98.476 0 .905.14 1.288.42.392.28.686.621.882 1.022.289-.457.677-.812 1.162-1.064.495-.252.989-.378 1.484-.378.887 0 1.601.266 2.142.798.541.523.812 1.283.812 2.282v4.578h-2.114v-4.116c0-1.157-.425-1.736-1.274-1.736-.42 0-.784.154-1.092.462-.308.299-.462.742-.462 1.33zm13.376 2.968c-.85.803-1.848 1.204-2.996 1.204-1.139 0-2.082-.35-2.828-1.05-.747-.709-1.12-1.657-1.12-2.842s.378-2.128 1.134-2.828c.765-.7 1.666-1.05 2.702-1.05s1.913.313 2.632.938c.728.625 1.092 1.484 1.092 2.576v1.12h-5.488c.065.411.28.747.644 1.008s.774.392 1.232.392c.737 0 1.344-.247 1.82-.742zm-1.512-3.43c-.047-.448-.215-.793-.504-1.036-.29-.243-.644-.364-1.064-.364-.411 0-.789.126-1.134.378-.346.252-.546.593-.602 1.022zm5.742.322v4.2h-2.1v-7.532h2.1v.84c.635-.644 1.349-.966 2.142-.966s1.456.28 1.988.84c.541.56.812 1.307.812 2.24v4.578h-2.1v-4.256c0-1.157-.425-1.736-1.274-1.736-.42 0-.789.154-1.106.462-.308.299-.462.742-.462 1.33zm9.238-1.82v3.374c0 .289.075.518.224.686.149.159.327.238.532.238.392 0 .723-.177.994-.532l.784 1.47c-.653.597-1.344.896-2.072.896-.719 0-1.33-.238-1.834-.714-.495-.476-.742-1.125-.742-1.946v-3.472h-.882v-1.512h.882v-2.254h2.114v2.254h1.82v1.512zm9.33 3.682c0 .737-.275 1.33-.826 1.778-.541.448-1.232.672-2.072.672-.56 0-1.143-.098-1.75-.294-.607-.205-1.153-.504-1.638-.896l.924-1.316c.784.607 1.619.91 2.506.91.271 0 .485-.051.644-.154.159-.112.238-.257.238-.434s-.112-.341-.336-.49c-.215-.149-.532-.289-.952-.42-.411-.131-.728-.243-.952-.336-.215-.093-.462-.229-.742-.406-.569-.355-.854-.877-.854-1.568 0-.7.28-1.269.84-1.708s1.283-.658 2.17-.658 1.773.299 2.66.896l-.784 1.4c-.653-.448-1.307-.672-1.96-.672-.644 0-.966.177-.966.532 0 .196.103.35.308.462s.546.243 1.022.392.812.266 1.008.35c.205.075.448.196.728.364.523.317.784.849.784 1.596z" fill="#353537"/></g><g clip-path="url(#d)"><rect fill="#8bd2e4" height="105.436" rx="8.772" stroke="#353537" stroke-width="2.924" width="106.726" x="206.462" y="561.462"/><g fill="#fff"><rect height="13" rx="2.924" width="90" x="215" y="575"/><rect height="13" rx="2.924" width="90" x="215" y="597"/><rect height="13" rx="2.924" width="90" x="215" y="641"/><rect height="13" rx="2.924" width="90" x="215" y="619"/></g><path d="m239.668 683.336c0 1.163-.299 2.208-.896 3.136-.587.928-1.382 1.621-2.384 2.08.096.16.245.299.448.416.213.107.432.16.656.16s.442-.037.656-.112c.213-.064.384-.144.512-.24.277-.224.474-.443.592-.656l1.296 1.552c-.918.971-2.064 1.456-3.44 1.456-.64 0-1.27-.176-1.888-.528-.619-.352-1.094-.848-1.424-1.488-1.654 0-3.046-.549-4.176-1.648-1.131-1.109-1.696-2.485-1.696-4.128s.565-3.013 1.696-4.112c1.13-1.109 2.522-1.664 4.176-1.664 1.653 0 3.045.555 4.176 1.664 1.13 1.099 1.696 2.469 1.696 4.112zm-2.544.016c0-1.003-.32-1.856-.96-2.56s-1.43-1.056-2.368-1.056c-.928 0-1.712.352-2.352 1.056s-.96 1.557-.96 2.56c0 .992.32 1.84.96 2.544.64.693 1.424 1.04 2.352 1.04.938 0 1.728-.347 2.368-1.04.64-.704.96-1.552.96-2.544zm9.986 1.68v-4.64h2.416v8.608h-2.416v-1.136c-.597.843-1.371 1.264-2.32 1.264-.939 0-1.728-.293-2.368-.88-.64-.597-.96-1.477-.96-2.64v-5.216h2.416v4.688c0 1.323.485 1.984 1.456 1.984.48 0 .896-.171 1.248-.512.352-.352.528-.859.528-1.52zm12.138 2.72c-.97.917-2.112 1.376-3.424 1.376-1.301 0-2.378-.4-3.232-1.2-.853-.811-1.28-1.893-1.28-3.248s.432-2.432 1.296-3.232c.875-.8 1.904-1.2 3.088-1.2s2.187.357 3.008 1.072c.832.715 1.248 1.696 1.248 2.944v1.28h-6.272c.075.469.32.853.736 1.152s.886.448 1.408.448c.843 0 1.536-.283 2.08-.848zm-1.728-3.92c-.053-.512-.245-.907-.576-1.184-.33-.277-.736-.416-1.216-.416-.469 0-.901.144-1.296.432-.394.288-.624.677-.688 1.168zm9.715 1.2v-4.64h2.416v8.608h-2.416v-1.136c-.597.843-1.371 1.264-2.32 1.264-.939 0-1.728-.293-2.368-.88-.64-.597-.96-1.477-.96-2.64v-5.216h2.416v4.688c0 1.323.485 1.984 1.456 1.984.48 0 .896-.171 1.248-.512.352-.352.528-.859.528-1.52zm12.138 2.72c-.97.917-2.112 1.376-3.424 1.376-1.301 0-2.378-.4-3.232-1.2-.853-.811-1.28-1.893-1.28-3.248s.432-2.432 1.296-3.232c.875-.8 1.904-1.2 3.088-1.2s2.187.357 3.008 1.072c.832.715 1.248 1.696 1.248 2.944v1.28h-6.272c.075.469.32.853.736 1.152s.886.448 1.408.448c.843 0 1.536-.283 2.08-.848zm-1.728-3.92c-.053-.512-.245-.907-.576-1.184-.33-.277-.736-.416-1.216-.416-.469 0-.901.144-1.296.432-.394.288-.624.677-.688 1.168zm16.59 5.168-1.04-2.416h-4.688l-1.04 2.416h-2.656l4.832-11.184h2.416l4.832 11.184zm-3.376-7.856-1.408 3.248h2.8z" fill="#353537"/><path d="m199.666 700.342c.915 0 1.713.359 2.394 1.078.681.709 1.022 1.624 1.022 2.744s-.35 2.058-1.05 2.814-1.498 1.134-2.394 1.134c-.887 0-1.624-.369-2.212-1.106v.994h-2.1v-10.388h2.1v3.696c.579-.644 1.325-.966 2.24-.966zm-2.268 3.906c0 .607.168 1.106.504 1.498.345.383.761.574 1.246.574s.91-.191 1.274-.574c.364-.392.546-.891.546-1.498s-.177-1.115-.532-1.526-.779-.616-1.274-.616-.915.205-1.26.616c-.336.401-.504.91-.504 1.526zm13.776 2.66c-.849.803-1.848 1.204-2.996 1.204-1.138 0-2.081-.35-2.828-1.05-.746-.709-1.12-1.657-1.12-2.842s.378-2.128 1.134-2.828c.766-.7 1.666-1.05 2.702-1.05s1.914.313 2.632.938c.728.625 1.092 1.484 1.092 2.576v1.12h-5.488c.066.411.28.747.644 1.008s.775.392 1.232.392c.738 0 1.344-.247 1.82-.742zm-1.512-3.43c-.046-.448-.214-.793-.504-1.036-.289-.243-.644-.364-1.064-.364-.41 0-.788.126-1.134.378-.345.252-.546.593-.602 1.022zm7.605-1.162c-.626 0-1.092.224-1.4.672-.308.439-.462 1.022-.462 1.75v3.262h-2.1v-7.532h2.1v.994c.27-.308.606-.569 1.008-.784.41-.215.826-.327 1.246-.336l.014 1.974zm3.893 5.684h-2.1v-10.388h2.1zm4.088 0h-2.1v-7.532h2.1zm-1.932-8.484c-.233-.243-.35-.537-.35-.882s.117-.635.35-.868c.243-.243.537-.364.882-.364.346 0 .635.121.868.364.243.233.364.523.364.868s-.121.639-.364.882c-.233.233-.522.35-.868.35-.345 0-.639-.117-.882-.35zm6.02 4.284v4.2h-2.1v-7.532h2.1v.84c.635-.644 1.349-.966 2.142-.966.794 0 1.456.28 1.988.84.542.56.812 1.307.812 2.24v4.578h-2.1v-4.256c0-1.157-.424-1.736-1.274-1.736-.42 0-.788.154-1.106.462-.308.299-.462.742-.462 1.33zm6.786 6.048v-1.218h8.204v1.218zm16.53-1.848h-1.974v-.91c-.542.681-1.214 1.022-2.016 1.022-.794 0-1.461-.229-2.002-.686-.542-.467-.812-1.083-.812-1.848 0-.775.28-1.353.84-1.736s1.325-.574 2.296-.574h1.568v-.042c0-.803-.425-1.204-1.274-1.204-.364 0-.752.075-1.162.224-.402.14-.742.317-1.022.532l-.938-1.358c.989-.719 2.118-1.078 3.388-1.078.914 0 1.661.229 2.24.686.578.457.868 1.181.868 2.17zm-2.114-2.87v-.364h-1.316c-.84 0-1.26.261-1.26.784 0 .271.098.481.294.63.205.14.494.21.868.21.373 0 .7-.112.98-.336.289-.233.434-.541.434-.924zm9.306-1.05c0-.607-.168-1.083-.504-1.428s-.751-.518-1.246-.518c-.494 0-.924.173-1.288.518-.354.345-.532.817-.532 1.414s.173 1.083.518 1.456c.355.364.784.546 1.288.546s.924-.182 1.26-.546.504-.845.504-1.442zm.294 2.646c-.662.737-1.488 1.106-2.478 1.106-.98 0-1.81-.331-2.492-.994-.672-.672-1.008-1.563-1.008-2.674 0-1.12.346-2.035 1.036-2.744.7-.719 1.498-1.078 2.394-1.078s1.638.369 2.226 1.106v-.994h2.1v6.566c0 .672-.116 1.269-.35 1.792-.233.523-.546.933-.938 1.232-.774.616-1.689.924-2.744.924-.56 0-1.134-.093-1.722-.28-.578-.177-1.087-.434-1.526-.77l.812-1.582c.691.523 1.419.784 2.184.784.775 0 1.386-.191 1.834-.574s.672-.989.672-1.82zm7.728-4.41c-.625 0-1.092.224-1.4.672-.308.439-.462 1.022-.462 1.75v3.262h-2.1v-7.532h2.1v.994c.271-.308.607-.569 1.008-.784.411-.215.826-.327 1.246-.336l.014 1.974zm8.318 4.592c-.849.803-1.848 1.204-2.996 1.204-1.139 0-2.081-.35-2.828-1.05-.747-.709-1.12-1.657-1.12-2.842s.378-2.128 1.134-2.828c.765-.7 1.666-1.05 2.702-1.05s1.913.313 2.632.938c.728.625 1.092 1.484 1.092 2.576v1.12h-5.488c.065.411.28.747.644 1.008s.775.392 1.232.392c.737 0 1.344-.247 1.82-.742zm-1.512-3.43c-.047-.448-.215-.793-.504-1.036s-.644-.364-1.064-.364c-.411 0-.789.126-1.134.378s-.546.593-.602 1.022zm10.166 3.43c-.849.803-1.848 1.204-2.996 1.204-1.138 0-2.081-.35-2.828-1.05-.746-.709-1.12-1.657-1.12-2.842s.378-2.128 1.134-2.828c.766-.7 1.666-1.05 2.702-1.05s1.914.313 2.632.938c.728.625 1.092 1.484 1.092 2.576v1.12h-5.488c.066.411.28.747.644 1.008s.775.392 1.232.392c.738 0 1.344-.247 1.82-.742zm-1.512-3.43c-.046-.448-.214-.793-.504-1.036-.289-.243-.644-.364-1.064-.364-.41 0-.788.126-1.134.378-.345.252-.546.593-.602 1.022zm10.559.462v4.06h-2.114v-4.116c0-.597-.094-1.036-.28-1.316-.178-.28-.472-.42-.882-.42-.402 0-.761.154-1.078.462-.308.299-.462.742-.462 1.33v4.06h-2.1v-7.532h2.1v.854c.578-.653 1.241-.98 1.988-.98.476 0 .905.14 1.288.42.392.28.686.621.882 1.022.289-.457.676-.812 1.162-1.064.494-.252.989-.378 1.484-.378.886 0 1.6.266 2.142.798.541.523.812 1.283.812 2.282v4.578h-2.114v-4.116c0-1.157-.425-1.736-1.274-1.736-.42 0-.784.154-1.092.462-.308.299-.462.742-.462 1.33zm13.375 2.968c-.849.803-1.848 1.204-2.996 1.204-1.138 0-2.081-.35-2.828-1.05-.746-.709-1.12-1.657-1.12-2.842s.378-2.128 1.134-2.828c.766-.7 1.666-1.05 2.702-1.05s1.914.313 2.632.938c.728.625 1.092 1.484 1.092 2.576v1.12h-5.488c.066.411.28.747.644 1.008s.775.392 1.232.392c.738 0 1.344-.247 1.82-.742zm-1.512-3.43c-.046-.448-.214-.793-.504-1.036-.289-.243-.644-.364-1.064-.364-.41 0-.788.126-1.134.378-.345.252-.546.593-.602 1.022zm5.742.322v4.2h-2.1v-7.532h2.1v.84c.635-.644 1.349-.966 2.142-.966.794 0 1.456.28 1.988.84.542.56.812 1.307.812 2.24v4.578h-2.1v-4.256c0-1.157-.424-1.736-1.274-1.736-.42 0-.788.154-1.106.462-.308.299-.462.742-.462 1.33zm9.239-1.82v3.374c0 .289.074.518.224.686.149.159.326.238.532.238.392 0 .723-.177.994-.532l.784 1.47c-.654.597-1.344.896-2.072.896-.719 0-1.33-.238-1.834-.714-.495-.476-.742-1.125-.742-1.946v-3.472h-.882v-1.512h.882v-2.254h2.114v2.254h1.82v1.512zm9.33 3.682c0 .737-.276 1.33-.826 1.778-.542.448-1.232.672-2.072.672-.56 0-1.144-.098-1.75-.294-.607-.205-1.153-.504-1.638-.896l.924-1.316c.784.607 1.619.91 2.506.91.27 0 .485-.051.644-.154.158-.112.238-.257.238-.434s-.112-.341-.336-.49c-.215-.149-.532-.289-.952-.42-.411-.131-.728-.243-.952-.336-.215-.093-.462-.229-.742-.406-.57-.355-.854-.877-.854-1.568 0-.7.28-1.269.84-1.708s1.283-.658 2.17-.658c.886 0 1.773.299 2.66.896l-.784 1.4c-.654-.448-1.307-.672-1.96-.672-.644 0-.966.177-.966.532 0 .196.102.35.308.462.205.112.546.243 1.022.392s.812.266 1.008.35c.205.075.448.196.728.364.522.317.784.849.784 1.596z" fill="#353537"/></g><path d="m147.16 537.212c0 1.599-.411 3.036-1.232 4.312-.807 1.276-1.899 2.229-3.278 2.86.132.22.337.411.616.572.293.147.594.22.902.22s.609-.051.902-.154c.293-.088.528-.198.704-.33.381-.308.653-.609.814-.902l1.782 2.134c-1.261 1.335-2.838 2.002-4.73 2.002-.88 0-1.745-.242-2.596-.726s-1.503-1.166-1.958-2.046c-2.273 0-4.187-.755-5.742-2.266-1.555-1.525-2.332-3.417-2.332-5.676s.777-4.143 2.332-5.654c1.555-1.525 3.469-2.288 5.742-2.288s4.187.763 5.742 2.288c1.555 1.511 2.332 3.395 2.332 5.654zm-3.498.022c0-1.379-.44-2.552-1.32-3.52s-1.965-1.452-3.256-1.452c-1.276 0-2.354.484-3.234 1.452s-1.32 2.141-1.32 3.52c0 1.364.44 2.53 1.32 3.498.88.953 1.958 1.43 3.234 1.43 1.291 0 2.376-.477 3.256-1.43.88-.968 1.32-2.134 1.32-3.498zm10.497 3.806c.572.704 1.342 1.056 2.31 1.056s1.731-.352 2.288-1.056c.572-.719.858-1.694.858-2.926v-8.492h3.432v8.602c0 2.229-.616 3.945-1.848 5.148-1.232 1.188-2.808 1.782-4.73 1.782-1.921 0-3.505-.601-4.752-1.804-1.232-1.203-1.848-2.911-1.848-5.126v-8.602h3.432v8.492c0 1.232.286 2.207.858 2.926zm23.54-11.418v3.058h-7.656v3.168h6.886v2.926h-6.886v3.19h7.898v3.036h-11.33v-15.378zm7.376 11.418c.572.704 1.342 1.056 2.31 1.056s1.731-.352 2.288-1.056c.572-.719.858-1.694.858-2.926v-8.492h3.432v8.602c0 2.229-.616 3.945-1.848 5.148-1.232 1.188-2.808 1.782-4.73 1.782-1.921 0-3.505-.601-4.752-1.804-1.232-1.203-1.848-2.911-1.848-5.126v-8.602h3.432v8.492c0 1.232.286 2.207.858 2.926zm23.54-11.418v3.058h-7.656v3.168h6.886v2.926h-6.886v3.19h7.898v3.036h-11.33v-15.378zm8.256 2.662c-.572 0-1.026.139-1.364.418-.322.264-.484.623-.484 1.078 0 .44.198.792.594 1.056.411.264 1.342.579 2.794.946 1.467.352 2.604.887 3.41 1.606.807.719 1.21 1.767 1.21 3.146s-.52 2.501-1.562 3.366c-1.026.851-2.383 1.276-4.07 1.276-2.434 0-4.627-.902-6.578-2.706l2.046-2.508c1.658 1.452 3.19 2.178 4.598 2.178.631 0 1.122-.132 1.474-.396.367-.279.55-.645.55-1.1 0-.469-.19-.836-.572-1.1-.381-.279-1.136-.557-2.266-.836-1.789-.425-3.102-.975-3.938-1.65-.821-.689-1.232-1.76-1.232-3.212 0-1.467.521-2.596 1.562-3.388 1.056-.792 2.369-1.188 3.938-1.188 1.027 0 2.054.176 3.08.528 1.027.352 1.922.851 2.684 1.496l-1.738 2.508c-1.334-1.012-2.713-1.518-4.136-1.518z" fill="#353537"/></g><g clip-path="url(#e)"><rect fill="#fff" height="167" rx="18" width="564" x="113" y="200"/><path d="m463.99 280.5c0 31.751-25.739 57.49-57.49 57.49s-57.49-25.739-57.49-57.49 25.739-57.49 57.49-57.49 57.49 25.739 57.49 57.49z" fill="#8bd2e4" stroke="#353537" stroke-width="4.02"/><path clip-rule="evenodd" d="m375 268.499v1.913c0 1.584 1.285 2.869 2.87 2.869h43.042v5.739c0 2.565 3.104 3.824 4.899 2.029l9.565-9.565c1.121-1.121 1.121-2.937 0-4.058l-9.565-9.565c-1.802-1.802-4.899-.526-4.899 2.029v5.739h-43.042c-1.585 0-2.87 1.285-2.87 2.87zm61.216 22.956c0-1.585-1.284-2.87-2.869-2.87h-43.043v-5.739c0-2.548-3.092-3.835-4.898-2.029l-9.566 9.565c-1.12 1.121-1.12 2.938 0 4.058l9.566 9.565c1.796 1.797 4.898.534 4.898-2.029v-5.739h43.043c1.585 0 2.869-1.284 2.869-2.869z" fill="#026d87" fill-rule="evenodd"/><path d="m135.016 238v-12.496h-4.928v-2.904h13.42v2.904h-4.928v12.496zm17.675.264c-1.218 0-2.347-.198-3.388-.594-1.027-.396-1.922-.953-2.684-1.672-.748-.719-1.335-1.562-1.76-2.53-.411-.968-.616-2.024-.616-3.168s.205-2.2.616-3.168c.425-.968 1.019-1.811 1.782-2.53.762-.719 1.657-1.276 2.684-1.672 1.026-.396 2.141-.594 3.344-.594 1.217 0 2.332.198 3.344.594 1.026.396 1.914.953 2.662 1.672.762.719 1.356 1.562 1.782 2.53.425.953.638 2.009.638 3.168 0 1.144-.213 2.207-.638 3.19-.426.968-1.02 1.811-1.782 2.53-.748.704-1.636 1.254-2.662 1.65-1.012.396-2.12.594-3.322.594zm-.022-3.036c.689 0 1.32-.117 1.892-.352.586-.235 1.1-.572 1.54-1.012s.777-.961 1.012-1.562c.249-.601.374-1.269.374-2.002s-.125-1.401-.374-2.002c-.235-.601-.572-1.122-1.012-1.562-.426-.44-.932-.777-1.518-1.012-.587-.235-1.225-.352-1.914-.352-.69 0-1.328.117-1.914.352-.572.235-1.078.572-1.518 1.012s-.785.961-1.034 1.562c-.235.601-.352 1.269-.352 2.002 0 .719.117 1.386.352 2.002.249.601.586 1.122 1.012 1.562.44.44.953.777 1.54 1.012.586.235 1.224.352 1.914.352zm11.104 2.772v-15.4h6.666c1.379 0 2.567.227 3.564.682.998.44 1.768 1.078 2.31 1.914.543.836.814 1.833.814 2.992 0 1.144-.271 2.134-.814 2.97-.542.836-1.312 1.481-2.31 1.936-.997.44-2.185.66-3.564.66h-4.686l1.584-1.606v5.852zm3.564-5.456-1.584-1.694h4.488c1.1 0 1.922-.235 2.464-.704.543-.469.814-1.122.814-1.958 0-.851-.271-1.511-.814-1.98-.542-.469-1.364-.704-2.464-.704h-4.488l1.584-1.694zm12.335 5.456v-15.4h3.564v15.4zm14.588.264c-1.188 0-2.295-.191-3.322-.572-1.012-.396-1.892-.953-2.64-1.672s-1.334-1.562-1.76-2.53c-.41-.968-.616-2.031-.616-3.19s.206-2.222.616-3.19c.426-.968 1.012-1.811 1.76-2.53.763-.719 1.65-1.269 2.662-1.65 1.012-.396 2.12-.594 3.322-.594 1.335 0 2.538.235 3.608.704 1.086.455 1.995 1.129 2.728 2.024l-2.288 2.112c-.528-.601-1.114-1.049-1.76-1.342-.645-.308-1.349-.462-2.112-.462-.718 0-1.378.117-1.98.352-.601.235-1.122.572-1.562 1.012s-.784.961-1.034 1.562c-.234.601-.352 1.269-.352 2.002s.118 1.401.352 2.002c.25.601.594 1.122 1.034 1.562s.961.777 1.562 1.012c.602.235 1.262.352 1.98.352.763 0 1.467-.147 2.112-.44.646-.308 1.232-.77 1.76-1.386l2.288 2.112c-.733.895-1.642 1.577-2.728 2.046-1.07.469-2.28.704-3.63.704zm18.274-9.46h7.414v2.772h-7.414zm.264 6.336h8.382v2.86h-11.924v-15.4h11.638v2.86h-8.096zm9.307 2.86 6.622-9.13v2.596l-6.336-8.866h4.048l4.378 6.182-1.694.022 4.312-6.204h3.872l-6.292 8.712v-2.552l6.666 9.24h-4.114l-4.532-6.534h1.628l-4.466 6.534zm24.277.264c-1.188 0-2.296-.191-3.322-.572-1.012-.396-1.892-.953-2.64-1.672s-1.335-1.562-1.76-2.53c-.411-.968-.616-2.031-.616-3.19s.205-2.222.616-3.19c.425-.968 1.012-1.811 1.76-2.53.762-.719 1.65-1.269 2.662-1.65 1.012-.396 2.119-.594 3.322-.594 1.334 0 2.537.235 3.608.704 1.085.455 1.994 1.129 2.728 2.024l-2.288 2.112c-.528-.601-1.115-1.049-1.76-1.342-.646-.308-1.35-.462-2.112-.462-.719 0-1.379.117-1.98.352-.602.235-1.122.572-1.562 1.012s-.785.961-1.034 1.562c-.235.601-.352 1.269-.352 2.002s.117 1.401.352 2.002c.249.601.594 1.122 1.034 1.562s.96.777 1.562 1.012c.601.235 1.261.352 1.98.352.762 0 1.466-.147 2.112-.44.645-.308 1.232-.77 1.76-1.386l2.288 2.112c-.734.895-1.643 1.577-2.728 2.046-1.071.469-2.281.704-3.63.704zm19.324-15.664h3.564v15.4h-3.564zm-6.996 15.4h-3.564v-15.4h3.564zm7.26-6.314h-7.524v-3.014h7.524zm4.92 6.314 6.864-15.4h3.52l6.886 15.4h-3.74l-5.632-13.596h1.408l-5.654 13.596zm3.432-3.3.946-2.706h7.92l.968 2.706zm15.436 3.3v-15.4h2.948l9.086 11.088h-1.43v-11.088h3.52v15.4h-2.926l-9.108-11.088h1.43v11.088zm25.203.264c-1.217 0-2.339-.191-3.366-.572-1.012-.396-1.899-.953-2.662-1.672-.748-.719-1.334-1.562-1.76-2.53-.41-.968-.616-2.031-.616-3.19s.206-2.222.616-3.19c.426-.968 1.02-1.811 1.782-2.53.763-.719 1.658-1.269 2.684-1.65 1.027-.396 2.156-.594 3.388-.594 1.364 0 2.589.227 3.674.682 1.1.455 2.024 1.115 2.772 1.98l-2.288 2.112c-.557-.587-1.166-1.019-1.826-1.298-.66-.293-1.378-.44-2.156-.44-.748 0-1.43.117-2.046.352s-1.151.572-1.606 1.012c-.44.44-.784.961-1.034 1.562-.234.601-.352 1.269-.352 2.002 0 .719.118 1.379.352 1.98.25.601.594 1.129 1.034 1.584.455.44.983.777 1.584 1.012.616.235 1.291.352 2.024.352.704 0 1.386-.11 2.046-.33.675-.235 1.328-.623 1.958-1.166l2.024 2.574c-.836.631-1.811 1.115-2.926 1.452-1.1.337-2.2.506-3.3.506zm2.97-2.42v-5.786h3.256v6.248zm9.845-7.04h7.414v2.772h-7.414zm.264 6.336h8.382v2.86h-11.924v-15.4h11.638v2.86h-8.096zm-196.038 29.86v-12.1c0-1.335.396-2.398 1.188-3.19.792-.807 1.921-1.21 3.388-1.21.499 0 .975.051 1.43.154.469.103.865.264 1.188.484l-.902 2.486c-.191-.132-.403-.235-.638-.308s-.484-.11-.748-.11c-.499 0-.887.147-1.166.44-.264.279-.396.704-.396 1.276v1.1l.088 1.474v9.504zm-1.826-8.932v-2.64h8.206v2.64zm15.397 9.108c-1.261 0-2.383-.264-3.366-.792-.968-.528-1.738-1.247-2.31-2.156-.557-.924-.836-1.973-.836-3.146 0-1.188.279-2.237.836-3.146.572-.924 1.342-1.643 2.31-2.156.983-.528 2.105-.792 3.366-.792 1.247 0 2.362.264 3.344.792.983.513 1.753 1.225 2.31 2.134.558.909.836 1.965.836 3.168 0 1.173-.278 2.222-.836 3.146-.557.909-1.327 1.628-2.31 2.156-.982.528-2.097.792-3.344.792zm0-2.816c.572 0 1.086-.132 1.54-.396.455-.264.814-.638 1.078-1.122.264-.499.396-1.085.396-1.76 0-.689-.132-1.276-.396-1.76s-.623-.858-1.078-1.122c-.454-.264-.968-.396-1.54-.396s-1.085.132-1.54.396c-.454.264-.821.638-1.1 1.122-.264.484-.396 1.071-.396 1.76 0 .675.132 1.261.396 1.76.279.484.646.858 1.1 1.122.455.264.968.396 1.54.396zm8.784 2.64v-11.836h3.278v3.344l-.462-.968c.352-.836.917-1.467 1.694-1.892.778-.44 1.724-.66 2.838-.66v3.168c-.146-.015-.278-.022-.396-.022-.117-.015-.242-.022-.374-.022-.938 0-1.701.271-2.288.814-.572.528-.858 1.357-.858 2.486v5.588zm15.42-9.152-.22-6.248h2.926l-.242 6.248zm4.532 0-.22-6.248h2.926l-.242 6.248zm12.617 9.152v-2.31l-.22-.506v-4.136c0-.733-.227-1.305-.682-1.716-.44-.411-1.122-.616-2.046-.616-.631 0-1.254.103-1.87.308-.601.191-1.115.455-1.54.792l-1.232-2.398c.645-.455 1.423-.807 2.332-1.056s1.833-.374 2.772-.374c1.804 0 3.205.425 4.202 1.276s1.496 2.178 1.496 3.982v6.754zm-3.608.176c-.924 0-1.716-.154-2.376-.462-.66-.323-1.166-.755-1.518-1.298s-.528-1.151-.528-1.826c0-.704.169-1.32.506-1.848.352-.528.902-.939 1.65-1.232.748-.308 1.723-.462 2.926-.462h3.146v2.002h-2.772c-.807 0-1.364.132-1.672.396-.293.264-.44.594-.44.99 0 .44.169.792.506 1.056.352.249.829.374 1.43.374.572 0 1.085-.132 1.54-.396.455-.279.785-.682.99-1.21l.528 1.584c-.249.763-.704 1.342-1.364 1.738s-1.511.594-2.552.594zm15.578 4.268c-1.115 0-2.193-.139-3.234-.418-1.027-.264-1.885-.667-2.574-1.21l1.364-2.464c.499.411 1.129.733 1.892.968.777.249 1.54.374 2.288.374 1.217 0 2.097-.271 2.64-.814.557-.543.836-1.349.836-2.42v-1.782l.22-2.97-.044-2.992v-2.552h3.256v9.856c0 2.2-.572 3.821-1.716 4.862s-2.787 1.562-4.928 1.562zm-.528-5.016c-1.1 0-2.097-.235-2.992-.704-.88-.484-1.591-1.151-2.134-2.002-.528-.865-.792-1.87-.792-3.014 0-1.159.264-2.163.792-3.014.543-.865 1.254-1.533 2.134-2.002.895-.469 1.892-.704 2.992-.704.997 0 1.877.205 2.64.616.763.396 1.357 1.019 1.782 1.87.425.836.638 1.914.638 3.234 0 1.305-.213 2.383-.638 3.234-.425.836-1.019 1.459-1.782 1.87s-1.643.616-2.64.616zm.682-2.816c.601 0 1.137-.117 1.606-.352.469-.249.836-.594 1.1-1.034s.396-.946.396-1.518c0-.587-.132-1.093-.396-1.518-.264-.44-.631-.777-1.1-1.012-.469-.249-1.005-.374-1.606-.374s-1.137.125-1.606.374c-.469.235-.843.572-1.122 1.012-.264.425-.396.931-.396 1.518 0 .572.132 1.078.396 1.518.279.44.653.785 1.122 1.034.469.235 1.005.352 1.606.352zm9.684 3.388v-11.836h3.278v3.344l-.462-.968c.352-.836.917-1.467 1.694-1.892.778-.44 1.724-.66 2.838-.66v3.168c-.146-.015-.278-.022-.396-.022-.117-.015-.242-.022-.374-.022-.938 0-1.701.271-2.288.814-.572.528-.858 1.357-.858 2.486v5.588zm15.177.176c-1.349 0-2.537-.264-3.564-.792-1.012-.528-1.797-1.247-2.354-2.156-.557-.924-.836-1.973-.836-3.146 0-1.188.271-2.237.814-3.146.557-.924 1.313-1.643 2.266-2.156.953-.528 2.031-.792 3.234-.792 1.159 0 2.2.249 3.124.748.939.484 1.679 1.188 2.222 2.112.543.909.814 2.002.814 3.278 0 .132-.007.286-.022.462-.015.161-.029.315-.044.462h-9.614v-2.002h7.81l-1.32.594c0-.616-.125-1.151-.374-1.606s-.594-.807-1.034-1.056c-.44-.264-.953-.396-1.54-.396s-1.107.132-1.562.396c-.44.249-.785.609-1.034 1.078-.249.455-.374.997-.374 1.628v.528c0 .645.139 1.217.418 1.716.293.484.697.858 1.21 1.122.528.249 1.144.374 1.848.374.631 0 1.181-.095 1.65-.286.484-.191.924-.477 1.32-.858l1.826 1.98c-.543.616-1.225 1.093-2.046 1.43-.821.323-1.767.484-2.838.484zm13.879 0c-1.349 0-2.537-.264-3.564-.792-1.012-.528-1.797-1.247-2.354-2.156-.557-.924-.836-1.973-.836-3.146 0-1.188.271-2.237.814-3.146.557-.924 1.313-1.643 2.266-2.156.953-.528 2.031-.792 3.234-.792 1.159 0 2.2.249 3.124.748.939.484 1.679 1.188 2.222 2.112.543.909.814 2.002.814 3.278 0 .132-.007.286-.022.462-.015.161-.029.315-.044.462h-9.614v-2.002h7.81l-1.32.594c0-.616-.125-1.151-.374-1.606s-.594-.807-1.034-1.056c-.44-.264-.953-.396-1.54-.396s-1.107.132-1.562.396c-.44.249-.785.609-1.034 1.078-.249.455-.374.997-.374 1.628v.528c0 .645.139 1.217.418 1.716.293.484.697.858 1.21 1.122.528.249 1.144.374 1.848.374.631 0 1.181-.095 1.65-.286.484-.191.924-.477 1.32-.858l1.826 1.98c-.543.616-1.225 1.093-2.046 1.43-.821.323-1.767.484-2.838.484zm23.163-12.188c.939 0 1.767.191 2.486.572.733.367 1.305.939 1.716 1.716.425.763.638 1.745.638 2.948v6.776h-3.432v-6.248c0-.953-.198-1.657-.594-2.112s-.953-.682-1.672-.682c-.499 0-.946.117-1.342.352-.396.22-.704.557-.924 1.012s-.33 1.034-.33 1.738v5.94h-3.432v-6.248c0-.953-.198-1.657-.594-2.112-.381-.455-.931-.682-1.65-.682-.499 0-.946.117-1.342.352-.396.22-.704.557-.924 1.012s-.33 1.034-.33 1.738v5.94h-3.432v-11.836h3.278v3.234l-.616-.946c.411-.807.99-1.415 1.738-1.826.763-.425 1.628-.638 2.596-.638 1.085 0 2.031.279 2.838.836.821.543 1.364 1.379 1.628 2.508l-1.21-.33c.396-.924 1.027-1.657 1.892-2.2.88-.543 1.885-.814 3.014-.814zm13.876 12.188c-1.349 0-2.537-.264-3.564-.792-1.012-.528-1.797-1.247-2.354-2.156-.557-.924-.836-1.973-.836-3.146 0-1.188.271-2.237.814-3.146.557-.924 1.313-1.643 2.266-2.156.953-.528 2.031-.792 3.234-.792 1.159 0 2.2.249 3.124.748.939.484 1.679 1.188 2.222 2.112.543.909.814 2.002.814 3.278 0 .132-.007.286-.022.462-.015.161-.029.315-.044.462h-9.614v-2.002h7.81l-1.32.594c0-.616-.125-1.151-.374-1.606s-.594-.807-1.034-1.056c-.44-.264-.953-.396-1.54-.396s-1.107.132-1.562.396c-.44.249-.785.609-1.034 1.078-.249.455-.374.997-.374 1.628v.528c0 .645.139 1.217.418 1.716.293.484.697.858 1.21 1.122.528.249 1.144.374 1.848.374.631 0 1.181-.095 1.65-.286.484-.191.924-.477 1.32-.858l1.826 1.98c-.543.616-1.225 1.093-2.046 1.43-.821.323-1.767.484-2.838.484zm15.199-12.188c.939 0 1.775.191 2.508.572.748.367 1.335.939 1.76 1.716.425.763.638 1.745.638 2.948v6.776h-3.432v-6.248c0-.953-.213-1.657-.638-2.112-.411-.455-.997-.682-1.76-.682-.543 0-1.034.117-1.474.352-.425.22-.763.565-1.012 1.034-.235.469-.352 1.071-.352 1.804v5.852h-3.432v-11.836h3.278v3.278l-.616-.99c.425-.792 1.034-1.401 1.826-1.826s1.694-.638 2.706-.638zm12.857 12.188c-1.393 0-2.479-.352-3.256-1.056-.777-.719-1.166-1.782-1.166-3.19v-10.384h3.432v10.34c0 .499.132.887.396 1.166.264.264.623.396 1.078.396.543 0 1.005-.147 1.386-.44l.924 2.42c-.352.249-.777.44-1.276.572-.484.117-.99.176-1.518.176zm-6.248-9.108v-2.64h8.206v2.64zm14.95 9.108c-1.012 0-1.987-.117-2.926-.352-.924-.249-1.657-.557-2.2-.924l1.144-2.464c.543.337 1.181.616 1.914.836.748.205 1.482.308 2.2.308.792 0 1.35-.095 1.672-.286.338-.191.506-.455.506-.792 0-.279-.132-.484-.396-.616-.249-.147-.586-.257-1.012-.33-.425-.073-.894-.147-1.408-.22-.498-.073-1.004-.169-1.518-.286-.513-.132-.982-.323-1.408-.572-.425-.249-.77-.587-1.034-1.012-.249-.425-.374-.975-.374-1.65 0-.748.213-1.408.638-1.98.44-.572 1.071-1.019 1.892-1.342.822-.337 1.804-.506 2.948-.506.807 0 1.628.088 2.464.264s1.533.433 2.09.77l-1.144 2.442c-.572-.337-1.151-.565-1.738-.682-.572-.132-1.129-.198-1.672-.198-.762 0-1.32.103-1.672.308s-.528.469-.528.792c0 .293.125.513.374.66.264.147.609.264 1.034.352.426.088.888.169 1.386.242.514.059 1.027.154 1.54.286.514.132.976.323 1.386.572.426.235.77.565 1.034.99.264.411.396.953.396 1.628 0 .733-.22 1.386-.66 1.958-.44.557-1.078.997-1.914 1.32-.821.323-1.826.484-3.014.484zm7.42-9.328-.22-6.248h2.926l-.242 6.248zm4.532 0-.22-6.248h2.926l-.242 6.248z" fill="#353537"/></g><g fill="#b3b8bf" stroke="#fff" stroke-width="4"><path d="m293.721 502.008 83.598-144.795c1.234-2.137.547-4.891-1.62-6.142l-2.856-1.649c-2.167-1.251-4.895-.469-6.129 1.668l-83.598 144.795-2.791-11.894-.001-.006c-.584-2.452-3.076-3.942-5.518-3.269l-3.132.863c-.002.001-.003.001-.005.002-2.391.648-3.802 3.116-3.181 5.502l7.185 27.593c.001.002.001.004.002.006.62 2.422 3.095 3.837 5.493 3.176h.001l27.499-7.585c2.391-.649 3.802-3.116 3.181-5.502 0 0 0 0 0-.001l-.819-3.143c0-.002-.001-.004-.002-.006-.631-2.466-3.173-3.881-5.598-3.146-.001 0-.001 0-.002.001z"/><path d="m527.39 494.572-83.597-144.795c-1.234-2.137-3.962-2.919-6.129-1.668l-2.856 1.649c-2.167 1.251-2.854 4.004-1.62 6.142l83.597 144.795-11.696-3.53-.006-.002c-2.416-.72-4.951.693-5.59 3.144l-.818 3.144c-.001.002-.001.004-.002.006-.634 2.395.798 4.85 3.175 5.505l27.489 7.575c.002 0 .004.001.006.001 2.407.674 4.87-.762 5.497-3.17l7.181-27.608c.634-2.395-.798-4.85-3.175-5.505l-3.132-.863c-.002-.001-.004-.001-.006-.002-2.451-.685-4.948.808-5.523 3.275 0 .001 0 .002-.001.003z"/><path d="m399.382 508.173v-151.164c0-2.468 1.972-4.509 4.474-4.509h3.298c2.502 0 4.474 2.041 4.474 4.509v151.164l8.364-8.905.005-.004c1.731-1.832 4.634-1.876 6.412-.072l2.281 2.313.004.004c1.747 1.757 1.735 4.6.004 6.355v.001l-20.019 20.303c-.002.002-.003.003-.005.005-1.748 1.787-4.599 1.774-6.345.003h-.001l-20.022-20.319c-1.747-1.757-1.735-4.599-.004-6.355h.001l2.28-2.313c.002-.002.003-.003.005-.005 1.78-1.819 4.689-1.774 6.421.075 0 .001.001.001.002.002z"/></g><g clip-path="url(#f)"><g clip-path="url(#g)"><path clip-rule="evenodd" d="m593.5 450.74c-22.869 0-43.688-3.045-59.277-8.031-.856-.274-1.451 1.698-8.852 5.626-3.231 1.715-11.11 3.665-11.11 3.665s5.631-4.503 7.811-6.961c2.309-2.604 2.309-6.04 1.636-6.349-11.114-5.092-17.708-11.439-17.708-18.32 0-16.773 39.175-30.37 87.5-30.37s87.5 13.597 87.5 30.37-39.175 30.37-87.5 30.37z" fill="#fff" fill-rule="evenodd"/><path d="m519.975 427v-1.47l-.14-.322v-2.632c0-.467-.144-.831-.434-1.092-.28-.261-.714-.392-1.302-.392-.401 0-.798.065-1.19.196-.382.121-.709.289-.98.504l-.784-1.526c.411-.289.906-.513 1.484-.672.579-.159 1.167-.238 1.764-.238 1.148 0 2.04.271 2.674.812.635.541.952 1.386.952 2.534v4.298zm-2.296.112c-.588 0-1.092-.098-1.512-.294-.42-.205-.742-.481-.966-.826s-.336-.733-.336-1.162c0-.448.108-.84.322-1.176.224-.336.574-.597 1.05-.784.476-.196 1.097-.294 1.862-.294h2.002v1.274h-1.764c-.513 0-.868.084-1.064.252-.186.168-.28.378-.28.63 0 .28.108.504.322.672.224.159.528.238.91.238.364 0 .691-.084.98-.252.29-.177.5-.434.63-.77l.336 1.008c-.158.485-.448.854-.868 1.106s-.961.378-1.624.378zm9.914 2.716c-.71 0-1.396-.089-2.058-.266-.654-.168-1.2-.425-1.638-.77l.868-1.568c.317.261.718.467 1.204.616.494.159.98.238 1.456.238.774 0 1.334-.173 1.68-.518.354-.345.532-.859.532-1.54v-1.134l.14-1.89-.028-1.904v-1.624h2.072v6.272c0 1.4-.364 2.431-1.092 3.094s-1.774.994-3.136.994zm-.336-3.192c-.7 0-1.335-.149-1.904-.448-.56-.308-1.013-.733-1.358-1.274-.336-.551-.504-1.19-.504-1.918 0-.737.168-1.377.504-1.918.345-.551.798-.975 1.358-1.274.569-.299 1.204-.448 1.904-.448.634 0 1.194.131 1.68.392.485.252.863.649 1.134 1.19.27.532.406 1.218.406 2.058 0 .831-.136 1.517-.406 2.058-.271.532-.649.929-1.134 1.19-.486.261-1.046.392-1.68.392zm.434-1.792c.382 0 .723-.075 1.022-.224.298-.159.532-.378.7-.658s.252-.602.252-.966c0-.373-.084-.695-.252-.966-.168-.28-.402-.495-.7-.644-.299-.159-.64-.238-1.022-.238-.383 0-.724.079-1.022.238-.299.149-.537.364-.714.644-.168.271-.252.593-.252.966 0 .364.084.686.252.966.177.28.415.499.714.658.298.149.639.224 1.022.224zm6.162 2.156v-7.532h2.086v2.128l-.294-.616c.224-.532.584-.933 1.078-1.204.495-.28 1.097-.42 1.806-.42v2.016c-.093-.009-.177-.014-.252-.014-.074-.009-.154-.014-.238-.014-.597 0-1.082.173-1.456.518-.364.336-.546.863-.546 1.582v3.556zm9.658.112c-.858 0-1.614-.168-2.268-.504-.644-.336-1.143-.793-1.498-1.372-.354-.588-.532-1.255-.532-2.002 0-.756.173-1.423.518-2.002.355-.588.836-1.045 1.442-1.372.607-.336 1.293-.504 2.058-.504.738 0 1.4.159 1.988.476.598.308 1.069.756 1.414 1.344.346.579.518 1.274.518 2.086 0 .084-.004.182-.014.294-.009.103-.018.201-.028.294h-6.118v-1.274h4.97l-.84.378c0-.392-.079-.733-.238-1.022-.158-.289-.378-.513-.658-.672-.28-.168-.606-.252-.98-.252-.373 0-.704.084-.994.252-.28.159-.499.387-.658.686-.158.289-.238.635-.238 1.036v.336c0 .411.089.775.266 1.092.187.308.444.546.77.714.336.159.728.238 1.176.238.402 0 .752-.061 1.05-.182.308-.121.588-.303.84-.546l1.162 1.26c-.345.392-.779.695-1.302.91-.522.205-1.124.308-1.806.308zm8.832 0c-.858 0-1.614-.168-2.268-.504-.644-.336-1.143-.793-1.498-1.372-.354-.588-.532-1.255-.532-2.002 0-.756.173-1.423.518-2.002.355-.588.836-1.045 1.442-1.372.607-.336 1.293-.504 2.058-.504.738 0 1.4.159 1.988.476.598.308 1.069.756 1.414 1.344.346.579.518 1.274.518 2.086 0 .084-.004.182-.014.294-.009.103-.018.201-.028.294h-6.118v-1.274h4.97l-.84.378c0-.392-.079-.733-.238-1.022-.158-.289-.378-.513-.658-.672-.28-.168-.606-.252-.98-.252-.373 0-.704.084-.994.252-.28.159-.499.387-.658.686-.158.289-.238.635-.238 1.036v.336c0 .411.089.775.266 1.092.187.308.444.546.77.714.336.159.728.238 1.176.238.402 0 .752-.061 1.05-.182.308-.121.588-.303.84-.546l1.162 1.26c-.345.392-.779.695-1.302.91-.522.205-1.124.308-1.806.308zm14.74-7.756c.598 0 1.125.121 1.582.364.467.233.831.597 1.092 1.092.271.485.406 1.111.406 1.876v4.312h-2.184v-3.976c0-.607-.126-1.055-.378-1.344s-.606-.434-1.064-.434c-.317 0-.602.075-.854.224-.252.14-.448.355-.588.644s-.21.658-.21 1.106v3.78h-2.184v-3.976c0-.607-.126-1.055-.378-1.344-.242-.289-.592-.434-1.05-.434-.317 0-.602.075-.854.224-.252.14-.448.355-.588.644s-.21.658-.21 1.106v3.78h-2.184v-7.532h2.086v2.058l-.392-.602c.262-.513.63-.901 1.106-1.162.486-.271 1.036-.406 1.652-.406.691 0 1.293.177 1.806.532.523.345.868.877 1.036 1.596l-.77-.21c.252-.588.654-1.055 1.204-1.4.56-.345 1.2-.518 1.918-.518zm8.831 7.756c-.859 0-1.615-.168-2.268-.504-.644-.336-1.144-.793-1.498-1.372-.355-.588-.532-1.255-.532-2.002 0-.756.172-1.423.518-2.002.354-.588.835-1.045 1.442-1.372.606-.336 1.292-.504 2.058-.504.737 0 1.4.159 1.988.476.597.308 1.068.756 1.414 1.344.345.579.518 1.274.518 2.086 0 .084-.005.182-.014.294-.01.103-.019.201-.028.294h-6.118v-1.274h4.97l-.84.378c0-.392-.08-.733-.238-1.022-.159-.289-.378-.513-.658-.672-.28-.168-.607-.252-.98-.252-.374 0-.705.084-.994.252-.28.159-.5.387-.658.686-.159.289-.238.635-.238 1.036v.336c0 .411.088.775.266 1.092.186.308.443.546.77.714.336.159.728.238 1.176.238.401 0 .751-.061 1.05-.182.308-.121.588-.303.84-.546l1.162 1.26c-.346.392-.78.695-1.302.91-.523.205-1.125.308-1.806.308zm9.672-7.756c.597 0 1.129.121 1.596.364.476.233.849.597 1.12 1.092.27.485.406 1.111.406 1.876v4.312h-2.184v-3.976c0-.607-.136-1.055-.406-1.344-.262-.289-.635-.434-1.12-.434-.346 0-.658.075-.938.224-.271.14-.486.359-.644.658-.15.299-.224.681-.224 1.148v3.724h-2.184v-7.532h2.086v2.086l-.392-.63c.27-.504.658-.891 1.162-1.162s1.078-.406 1.722-.406zm8.181 7.756c-.886 0-1.577-.224-2.072-.672-.494-.457-.742-1.134-.742-2.03v-6.608h2.184v6.58c0 .317.084.565.252.742.168.168.397.252.686.252.346 0 .64-.093.882-.28l.588 1.54c-.224.159-.494.28-.812.364-.308.075-.63.112-.966.112zm-3.976-5.796v-1.68h5.222v1.68zm9.514 5.796c-.644 0-1.264-.075-1.862-.224-.588-.159-1.054-.355-1.4-.588l.728-1.568c.346.215.752.392 1.218.532.476.131.943.196 1.4.196.504 0 .859-.061 1.064-.182.215-.121.322-.289.322-.504 0-.177-.084-.308-.252-.392-.158-.093-.373-.163-.644-.21-.27-.047-.569-.093-.896-.14-.317-.047-.639-.107-.966-.182-.326-.084-.625-.205-.896-.364-.27-.159-.49-.373-.658-.644-.158-.271-.238-.621-.238-1.05 0-.476.136-.896.406-1.26.28-.364.682-.649 1.204-.854.523-.215 1.148-.322 1.876-.322.514 0 1.036.056 1.568.168s.976.275 1.33.49l-.728 1.554c-.364-.215-.732-.359-1.106-.434-.364-.084-.718-.126-1.064-.126-.485 0-.84.065-1.064.196s-.336.299-.336.504c0 .187.08.327.238.42.168.093.388.168.658.224.271.056.565.107.882.154.327.037.654.098.98.182.327.084.621.205.882.364.271.149.49.359.658.63.168.261.252.607.252 1.036 0 .467-.14.882-.42 1.246-.28.355-.686.635-1.218.84-.522.205-1.162.308-1.918.308zm5.73 0c-.374 0-.696-.126-.966-.378-.262-.261-.392-.593-.392-.994s.13-.723.392-.966c.27-.252.592-.378.966-.378.382 0 .704.126.966.378.261.243.392.565.392.966s-.131.733-.392.994c-.262.252-.584.378-.966.378zm6.494 0c-.859 0-1.615-.168-2.268-.504-.644-.336-1.144-.793-1.498-1.372-.355-.588-.532-1.255-.532-2.002 0-.756.172-1.423.518-2.002.354-.588.835-1.045 1.442-1.372.606-.336 1.292-.504 2.058-.504.737 0 1.4.159 1.988.476.597.308 1.068.756 1.414 1.344.345.579.518 1.274.518 2.086 0 .084-.005.182-.014.294-.01.103-.019.201-.028.294h-6.118v-1.274h4.97l-.84.378c0-.392-.08-.733-.238-1.022-.159-.289-.378-.513-.658-.672-.28-.168-.607-.252-.98-.252-.374 0-.705.084-.994.252-.28.159-.5.387-.658.686-.159.289-.238.635-.238 1.036v.336c0 .411.088.775.266 1.092.186.308.443.546.77.714.336.159.728.238 1.176.238.401 0 .751-.061 1.05-.182.308-.121.588-.303.84-.546l1.162 1.26c-.346.392-.78.695-1.302.91-.523.205-1.125.308-1.806.308zm8.272 0c-.626 0-1.186-.121-1.68-.364-.486-.243-.864-.611-1.134-1.106-.271-.504-.406-1.143-.406-1.918v-4.256h2.184v3.934c0 .625.13 1.087.392 1.386.27.289.648.434 1.134.434.336 0 .634-.07.896-.21.261-.149.466-.373.616-.672.149-.308.224-.691.224-1.148v-3.724h2.184v7.532h-2.072v-2.072l.378.602c-.252.523-.626.919-1.12 1.19-.486.261-1.018.392-1.596.392zm7.259 0c-.373 0-.695-.126-.966-.378-.261-.261-.392-.593-.392-.994s.131-.723.392-.966c.271-.252.593-.378.966-.378.383 0 .705.126.966.378.261.243.392.565.392.966s-.131.733-.392.994c-.261.252-.583.378-.966.378zm7.205-8.568-1.862 1.022v-.364l1.862 1.008-.686 1.148-1.736-1.036.196-.126.028 1.946h-1.316l.014-1.946.196.126-1.736 1.036-.672-1.148 1.862-1.008v.364l-1.862-1.022.672-1.148 1.736 1.05-.196.112-.014-1.946h1.316l-.028 1.946-.196-.112 1.736-1.05zm1.49 8.568c-.373 0-.695-.126-.966-.378-.261-.261-.392-.593-.392-.994s.131-.723.392-.966c.271-.252.593-.378.966-.378.383 0 .705.126.966.378.262.243.392.565.392.966s-.13.733-.392.994c-.261.252-.583.378-.966.378zm5.373 0c-.644 0-1.265-.075-1.862-.224-.588-.159-1.055-.355-1.4-.588l.728-1.568c.345.215.751.392 1.218.532.476.131.942.196 1.4.196.504 0 .858-.061 1.064-.182.214-.121.322-.289.322-.504 0-.177-.084-.308-.252-.392-.159-.093-.374-.163-.644-.21-.271-.047-.57-.093-.896-.14-.318-.047-.64-.107-.966-.182-.327-.084-.626-.205-.896-.364-.271-.159-.49-.373-.658-.644-.159-.271-.238-.621-.238-1.05 0-.476.135-.896.406-1.26.28-.364.681-.649 1.204-.854.522-.215 1.148-.322 1.876-.322.513 0 1.036.056 1.568.168s.975.275 1.33.49l-.728 1.554c-.364-.215-.733-.359-1.106-.434-.364-.084-.719-.126-1.064-.126-.486 0-.84.065-1.064.196s-.336.299-.336.504c0 .187.079.327.238.42.168.093.387.168.658.224.27.056.564.107.882.154.326.037.653.098.98.182.326.084.62.205.882.364.27.149.49.359.658.63.168.261.252.607.252 1.036 0 .467-.14.882-.42 1.246-.28.355-.686.635-1.218.84-.523.205-1.162.308-1.918.308zm7.983 0c-.887 0-1.577-.224-2.072-.672-.495-.457-.742-1.134-.742-2.03v-6.608h2.184v6.58c0 .317.084.565.252.742.168.168.397.252.686.252.345 0 .639-.093.882-.28l.588 1.54c-.224.159-.495.28-.812.364-.308.075-.63.112-.966.112zm-3.976-5.796v-1.68h5.222v1.68zm10.332 5.796c-.803 0-1.517-.168-2.142-.504-.616-.336-1.106-.793-1.47-1.372-.355-.588-.532-1.255-.532-2.002 0-.756.177-1.423.532-2.002.364-.588.854-1.045 1.47-1.372.625-.336 1.339-.504 2.142-.504.793 0 1.502.168 2.128.504.625.327 1.115.779 1.47 1.358.354.579.532 1.251.532 2.016 0 .747-.178 1.414-.532 2.002-.355.579-.845 1.036-1.47 1.372-.626.336-1.335.504-2.128.504zm0-1.792c.364 0 .69-.084.98-.252.289-.168.518-.406.686-.714.168-.317.252-.691.252-1.12 0-.439-.084-.812-.252-1.12s-.397-.546-.686-.714c-.29-.168-.616-.252-.98-.252s-.691.084-.98.252c-.29.168-.523.406-.7.714-.168.308-.252.681-.252 1.12 0 .429.084.803.252 1.12.177.308.41.546.7.714.289.168.616.252.98.252zm5.589 1.68v-7.532h2.086v2.128l-.294-.616c.224-.532.584-.933 1.078-1.204.495-.28 1.097-.42 1.806-.42v2.016c-.093-.009-.177-.014-.252-.014-.074-.009-.154-.014-.238-.014-.597 0-1.082.173-1.456.518-.364.336-.546.863-.546 1.582v3.556zm9.658.112c-.858 0-1.614-.168-2.268-.504-.644-.336-1.143-.793-1.498-1.372-.354-.588-.532-1.255-.532-2.002 0-.756.173-1.423.518-2.002.355-.588.836-1.045 1.442-1.372.607-.336 1.293-.504 2.058-.504.738 0 1.4.159 1.988.476.598.308 1.069.756 1.414 1.344.346.579.518 1.274.518 2.086 0 .084-.004.182-.014.294-.009.103-.018.201-.028.294h-6.118v-1.274h4.97l-.84.378c0-.392-.079-.733-.238-1.022-.158-.289-.378-.513-.658-.672-.28-.168-.606-.252-.98-.252-.373 0-.704.084-.994.252-.28.159-.499.387-.658.686-.158.289-.238.635-.238 1.036v.336c0 .411.089.775.266 1.092.187.308.444.546.77.714.336.159.728.238 1.176.238.402 0 .752-.061 1.05-.182.308-.121.588-.303.84-.546l1.162 1.26c-.345.392-.779.695-1.302.91-.522.205-1.124.308-1.806.308z" fill="#353537"/></g><g clip-path="url(#h)"><path clip-rule="evenodd" d="m397 473.882c16.465 0 31.455-2.701 42.679-7.124.617-.243-.333 2.983-.829 4.732-.6 2.115-3.532 7.251-3.532 7.251s6.874-4.605 8.675-8.08c2.271-4.732 2.772-7.194 3.257-7.468 8.003-4.518 12.75-10.148 12.75-16.252 0-14.879-28.206-26.941-63-26.941s-63 12.062-63 26.941 28.206 26.941 63 26.941z" fill="#fff" fill-rule="evenodd"/><path d="m351.831 453.672v-1.47l-.14-.322v-2.632c0-.467-.145-.831-.434-1.092-.28-.261-.714-.392-1.302-.392-.401 0-.798.065-1.19.196-.383.121-.709.289-.98.504l-.784-1.526c.411-.289.905-.513 1.484-.672s1.167-.238 1.764-.238c1.148 0 2.039.271 2.674.812s.952 1.386.952 2.534v4.298zm-2.296.112c-.588 0-1.092-.098-1.512-.294-.42-.205-.742-.481-.966-.826s-.336-.733-.336-1.162c0-.448.107-.84.322-1.176.224-.336.574-.597 1.05-.784.476-.196 1.097-.294 1.862-.294h2.002v1.274h-1.764c-.513 0-.868.084-1.064.252-.187.168-.28.378-.28.63 0 .28.107.504.322.672.224.159.527.238.91.238.364 0 .691-.084.98-.252.289-.177.499-.434.63-.77l.336 1.008c-.159.485-.448.854-.868 1.106s-.961.378-1.624.378zm9.913 2.716c-.709 0-1.395-.089-2.058-.266-.653-.168-1.199-.425-1.638-.77l.868-1.568c.318.261.719.467 1.204.616.495.159.98.238 1.456.238.775 0 1.335-.173 1.68-.518.355-.345.532-.859.532-1.54v-1.134l.14-1.89-.028-1.904v-1.624h2.072v6.272c0 1.4-.364 2.431-1.092 3.094s-1.773.994-3.136.994zm-.336-3.192c-.7 0-1.334-.149-1.904-.448-.56-.308-1.012-.733-1.358-1.274-.336-.551-.504-1.19-.504-1.918 0-.737.168-1.377.504-1.918.346-.551.798-.975 1.358-1.274.57-.299 1.204-.448 1.904-.448.635 0 1.195.131 1.68.392.486.252.864.649 1.134 1.19.271.532.406 1.218.406 2.058 0 .831-.135 1.517-.406 2.058-.27.532-.648.929-1.134 1.19-.485.261-1.045.392-1.68.392zm.434-1.792c.383 0 .724-.075 1.022-.224.299-.159.532-.378.7-.658s.252-.602.252-.966c0-.373-.084-.695-.252-.966-.168-.28-.401-.495-.7-.644-.298-.159-.639-.238-1.022-.238-.382 0-.723.079-1.022.238-.298.149-.536.364-.714.644-.168.271-.252.593-.252.966 0 .364.084.686.252.966.178.28.416.499.714.658.299.149.64.224 1.022.224zm6.163 2.156v-7.532h2.086v2.128l-.294-.616c.224-.532.584-.933 1.078-1.204.495-.28 1.097-.42 1.806-.42v2.016c-.093-.009-.177-.014-.252-.014-.074-.009-.154-.014-.238-.014-.597 0-1.082.173-1.456.518-.364.336-.546.863-.546 1.582v3.556zm9.658.112c-.859 0-1.615-.168-2.268-.504-.644-.336-1.143-.793-1.498-1.372-.355-.588-.532-1.255-.532-2.002 0-.756.173-1.423.518-2.002.355-.588.835-1.045 1.442-1.372.607-.336 1.293-.504 2.058-.504.737 0 1.4.159 1.988.476.597.308 1.069.756 1.414 1.344.345.579.518 1.274.518 2.086 0 .084-.005.182-.014.294-.009.103-.019.201-.028.294h-6.118v-1.274h4.97l-.84.378c0-.392-.079-.733-.238-1.022s-.378-.513-.658-.672c-.28-.168-.607-.252-.98-.252s-.705.084-.994.252c-.28.159-.499.387-.658.686-.159.289-.238.635-.238 1.036v.336c0 .411.089.775.266 1.092.187.308.443.546.77.714.336.159.728.238 1.176.238.401 0 .751-.061 1.05-.182.308-.121.588-.303.84-.546l1.162 1.26c-.345.392-.779.695-1.302.91-.523.205-1.125.308-1.806.308zm8.832 0c-.859 0-1.615-.168-2.268-.504-.644-.336-1.143-.793-1.498-1.372-.355-.588-.532-1.255-.532-2.002 0-.756.173-1.423.518-2.002.355-.588.835-1.045 1.442-1.372.607-.336 1.293-.504 2.058-.504.737 0 1.4.159 1.988.476.597.308 1.069.756 1.414 1.344.345.579.518 1.274.518 2.086 0 .084-.005.182-.014.294-.009.103-.019.201-.028.294h-6.118v-1.274h4.97l-.84.378c0-.392-.079-.733-.238-1.022s-.378-.513-.658-.672c-.28-.168-.607-.252-.98-.252s-.705.084-.994.252c-.28.159-.499.387-.658.686-.159.289-.238.635-.238 1.036v.336c0 .411.089.775.266 1.092.187.308.443.546.77.714.336.159.728.238 1.176.238.401 0 .751-.061 1.05-.182.308-.121.588-.303.84-.546l1.162 1.26c-.345.392-.779.695-1.302.91-.523.205-1.125.308-1.806.308zm14.74-7.756c.597 0 1.125.121 1.582.364.467.233.831.597 1.092 1.092.271.485.406 1.111.406 1.876v4.312h-2.184v-3.976c0-.607-.126-1.055-.378-1.344s-.607-.434-1.064-.434c-.317 0-.602.075-.854.224-.252.14-.448.355-.588.644s-.21.658-.21 1.106v3.78h-2.184v-3.976c0-.607-.126-1.055-.378-1.344-.243-.289-.593-.434-1.05-.434-.317 0-.602.075-.854.224-.252.14-.448.355-.588.644s-.21.658-.21 1.106v3.78h-2.184v-7.532h2.086v2.058l-.392-.602c.261-.513.63-.901 1.106-1.162.485-.271 1.036-.406 1.652-.406.691 0 1.293.177 1.806.532.523.345.868.877 1.036 1.596l-.77-.21c.252-.588.653-1.055 1.204-1.4.56-.345 1.199-.518 1.918-.518zm8.83 7.756c-.858 0-1.614-.168-2.268-.504-.644-.336-1.143-.793-1.498-1.372-.354-.588-.532-1.255-.532-2.002 0-.756.173-1.423.518-2.002.355-.588.836-1.045 1.442-1.372.607-.336 1.293-.504 2.058-.504.738 0 1.4.159 1.988.476.598.308 1.069.756 1.414 1.344.346.579.518 1.274.518 2.086 0 .084-.004.182-.014.294-.009.103-.018.201-.028.294h-6.118v-1.274h4.97l-.84.378c0-.392-.079-.733-.238-1.022-.158-.289-.378-.513-.658-.672-.28-.168-.606-.252-.98-.252-.373 0-.704.084-.994.252-.28.159-.499.387-.658.686-.158.289-.238.635-.238 1.036v.336c0 .411.089.775.266 1.092.187.308.444.546.77.714.336.159.728.238 1.176.238.402 0 .752-.061 1.05-.182.308-.121.588-.303.84-.546l1.162 1.26c-.345.392-.779.695-1.302.91-.522.205-1.124.308-1.806.308zm9.672-7.756c.598 0 1.13.121 1.596.364.476.233.85.597 1.12 1.092.271.485.406 1.111.406 1.876v4.312h-2.184v-3.976c0-.607-.135-1.055-.406-1.344-.261-.289-.634-.434-1.12-.434-.345 0-.658.075-.938.224-.27.14-.485.359-.644.658-.149.299-.224.681-.224 1.148v3.724h-2.184v-7.532h2.086v2.086l-.392-.63c.271-.504.658-.891 1.162-1.162s1.078-.406 1.722-.406zm8.182 7.756c-.887 0-1.577-.224-2.072-.672-.495-.457-.742-1.134-.742-2.03v-6.608h2.184v6.58c0 .317.084.565.252.742.168.168.397.252.686.252.345 0 .639-.093.882-.28l.588 1.54c-.224.159-.495.28-.812.364-.308.075-.63.112-.966.112zm-3.976-5.796v-1.68h5.222v1.68zm9.514 5.796c-.644 0-1.265-.075-1.862-.224-.588-.159-1.055-.355-1.4-.588l.728-1.568c.345.215.751.392 1.218.532.476.131.943.196 1.4.196.504 0 .859-.061 1.064-.182.215-.121.322-.289.322-.504 0-.177-.084-.308-.252-.392-.159-.093-.373-.163-.644-.21s-.569-.093-.896-.14c-.317-.047-.639-.107-.966-.182-.327-.084-.625-.205-.896-.364s-.49-.373-.658-.644c-.159-.271-.238-.621-.238-1.05 0-.476.135-.896.406-1.26.28-.364.681-.649 1.204-.854.523-.215 1.148-.322 1.876-.322.513 0 1.036.056 1.568.168s.975.275 1.33.49l-.728 1.554c-.364-.215-.733-.359-1.106-.434-.364-.084-.719-.126-1.064-.126-.485 0-.84.065-1.064.196s-.336.299-.336.504c0 .187.079.327.238.42.168.093.387.168.658.224s.565.107.882.154c.327.037.653.098.98.182s.621.205.882.364c.271.149.49.359.658.63.168.261.252.607.252 1.036 0 .467-.14.882-.42 1.246-.28.355-.686.635-1.218.84-.523.205-1.162.308-1.918.308zm5.73 0c-.374 0-.696-.126-.966-.378-.262-.261-.392-.593-.392-.994s.13-.723.392-.966c.27-.252.592-.378.966-.378.382 0 .704.126.966.378.261.243.392.565.392.966s-.131.733-.392.994c-.262.252-.584.378-.966.378zm7.29-.112 1.218-9.8h1.568l-1.204 9.8zm-5.18-2.24v-1.526h9.044v1.526zm1.554 2.24 1.218-9.8h1.568l-1.218 9.8zm-1.078-6.034v-1.526h9.03l.014 1.526z" fill="#353537"/></g><g clip-path="url(#i)"><path clip-rule="evenodd" d="m177.5 470.882c24.959 0 47.682-2.701 64.696-7.124.935-.243 1.584 1.506 9.662 4.991 3.527 1.522 12.126 3.251 12.126 3.251s-6.146-3.995-8.525-6.175c-2.521-2.31-2.521-5.358-1.786-5.632 12.13-4.518 19.327-10.148 19.327-16.252 0-14.879-42.757-26.941-95.5-26.941s-95.5 12.062-95.5 26.941 42.757 26.941 95.5 26.941z" fill="#fff" fill-rule="evenodd"/><path d="m98.1925 450.672v-1.47l-.14-.322v-2.632c0-.467-.1447-.831-.434-1.092-.28-.261-.714-.392-1.302-.392-.4014 0-.798.065-1.19.196-.3827.121-.7094.289-.98.504l-.784-1.526c.4106-.289.9053-.513 1.484-.672.5786-.159 1.1666-.238 1.764-.238 1.148 0 2.0393.271 2.674.812.6346.541.9515 1.386.9515 2.534v4.298zm-2.296.112c-.588 0-1.092-.098-1.512-.294-.42-.205-.742-.481-.966-.826s-.336-.733-.336-1.162c0-.448.1073-.84.322-1.176.224-.336.574-.597 1.05-.784.476-.196 1.0966-.294 1.862-.294h2.002v1.274h-1.764c-.5134 0-.868.084-1.064.252-.1867.168-.28.378-.28.63 0 .28.1073.504.322.672.224.159.5273.238.91.238.364 0 .6906-.084.98-.252.2893-.177.4993-.434.63-.77l.336 1.008c-.1587.485-.448.854-.868 1.106s-.9614.378-1.624.378zm9.9135 2.716c-.71 0-1.396-.089-2.058-.266-.654-.168-1.2-.425-1.638-.77l.868-1.568c.317.261.718.467 1.204.616.494.159.98.238 1.456.238.774 0 1.334-.173 1.68-.518.354-.345.532-.859.532-1.54v-1.134l.14-1.89-.028-1.904v-1.624h2.072v6.272c0 1.4-.364 2.431-1.092 3.094s-1.774.994-3.136.994zm-.336-3.192c-.7 0-1.335-.149-1.904-.448-.56-.308-1.013-.733-1.358-1.274-.336-.551-.504-1.19-.504-1.918 0-.737.168-1.377.504-1.918.345-.551.798-.975 1.358-1.274.569-.299 1.204-.448 1.904-.448.634 0 1.194.131 1.68.392.485.252.863.649 1.134 1.19.27.532.406 1.218.406 2.058 0 .831-.136 1.517-.406 2.058-.271.532-.649.929-1.134 1.19-.486.261-1.046.392-1.68.392zm.434-1.792c.382 0 .723-.075 1.022-.224.298-.159.532-.378.7-.658s.252-.602.252-.966c0-.373-.084-.695-.252-.966-.168-.28-.402-.495-.7-.644-.299-.159-.64-.238-1.022-.238-.383 0-.724.079-1.022.238-.299.149-.537.364-.714.644-.168.271-.252.593-.252.966 0 .364.084.686.252.966.177.28.415.499.714.658.298.149.639.224 1.022.224zm6.163 2.156v-7.532h2.086v2.128l-.294-.616c.224-.532.583-.933 1.078-1.204.494-.28 1.096-.42 1.806-.42v2.016c-.094-.009-.178-.014-.252-.014-.075-.009-.154-.014-.238-.014-.598 0-1.083.173-1.456.518-.364.336-.546.863-.546 1.582v3.556zm9.657.112c-.858 0-1.614-.168-2.268-.504-.644-.336-1.143-.793-1.498-1.372-.354-.588-.532-1.255-.532-2.002 0-.756.173-1.423.518-2.002.355-.588.836-1.045 1.442-1.372.607-.336 1.293-.504 2.058-.504.738 0 1.4.159 1.988.476.598.308 1.069.756 1.414 1.344.346.579.518 1.274.518 2.086 0 .084-.004.182-.014.294-.009.103-.018.201-.028.294h-6.118v-1.274h4.97l-.84.378c0-.392-.079-.733-.238-1.022-.158-.289-.378-.513-.658-.672-.28-.168-.606-.252-.98-.252-.373 0-.704.084-.994.252-.28.159-.499.387-.658.686-.158.289-.238.635-.238 1.036v.336c0 .411.089.775.266 1.092.187.308.444.546.77.714.336.159.728.238 1.176.238.402 0 .752-.061 1.05-.182.308-.121.588-.303.84-.546l1.162 1.26c-.345.392-.779.695-1.302.91-.522.205-1.124.308-1.806.308zm8.832 0c-.858 0-1.614-.168-2.268-.504-.644-.336-1.143-.793-1.498-1.372-.354-.588-.532-1.255-.532-2.002 0-.756.173-1.423.518-2.002.355-.588.836-1.045 1.442-1.372.607-.336 1.293-.504 2.058-.504.738 0 1.4.159 1.988.476.598.308 1.069.756 1.414 1.344.346.579.518 1.274.518 2.086 0 .084-.004.182-.014.294-.009.103-.018.201-.028.294h-6.118v-1.274h4.97l-.84.378c0-.392-.079-.733-.238-1.022-.158-.289-.378-.513-.658-.672-.28-.168-.606-.252-.98-.252-.373 0-.704.084-.994.252-.28.159-.499.387-.658.686-.158.289-.238.635-.238 1.036v.336c0 .411.089.775.266 1.092.187.308.444.546.77.714.336.159.728.238 1.176.238.402 0 .752-.061 1.05-.182.308-.121.588-.303.84-.546l1.162 1.26c-.345.392-.779.695-1.302.91-.522.205-1.124.308-1.806.308zm14.74-7.756c.598 0 1.125.121 1.582.364.467.233.831.597 1.092 1.092.271.485.406 1.111.406 1.876v4.312h-2.184v-3.976c0-.607-.126-1.055-.378-1.344s-.606-.434-1.064-.434c-.317 0-.602.075-.854.224-.252.14-.448.355-.588.644s-.21.658-.21 1.106v3.78h-2.184v-3.976c0-.607-.126-1.055-.378-1.344-.242-.289-.592-.434-1.05-.434-.317 0-.602.075-.854.224-.252.14-.448.355-.588.644s-.21.658-.21 1.106v3.78h-2.184v-7.532h2.086v2.058l-.392-.602c.262-.513.63-.901 1.106-1.162.486-.271 1.036-.406 1.652-.406.691 0 1.293.177 1.806.532.523.345.868.877 1.036 1.596l-.77-.21c.252-.588.654-1.055 1.204-1.4.56-.345 1.2-.518 1.918-.518zm8.831 7.756c-.859 0-1.615-.168-2.268-.504-.644-.336-1.144-.793-1.498-1.372-.355-.588-.532-1.255-.532-2.002 0-.756.172-1.423.518-2.002.354-.588.835-1.045 1.442-1.372.606-.336 1.292-.504 2.058-.504.737 0 1.4.159 1.988.476.597.308 1.068.756 1.414 1.344.345.579.518 1.274.518 2.086 0 .084-.005.182-.014.294-.01.103-.019.201-.028.294h-6.118v-1.274h4.97l-.84.378c0-.392-.08-.733-.238-1.022-.159-.289-.378-.513-.658-.672-.28-.168-.607-.252-.98-.252-.374 0-.705.084-.994.252-.28.159-.5.387-.658.686-.159.289-.238.635-.238 1.036v.336c0 .411.088.775.266 1.092.186.308.443.546.77.714.336.159.728.238 1.176.238.401 0 .751-.061 1.05-.182.308-.121.588-.303.84-.546l1.162 1.26c-.346.392-.78.695-1.302.91-.523.205-1.125.308-1.806.308zm9.672-7.756c.597 0 1.129.121 1.596.364.476.233.849.597 1.12 1.092.27.485.406 1.111.406 1.876v4.312h-2.184v-3.976c0-.607-.136-1.055-.406-1.344-.262-.289-.635-.434-1.12-.434-.346 0-.658.075-.938.224-.271.14-.486.359-.644.658-.15.299-.224.681-.224 1.148v3.724h-2.184v-7.532h2.086v2.086l-.392-.63c.27-.504.658-.891 1.162-1.162s1.078-.406 1.722-.406zm8.181 7.756c-.886 0-1.577-.224-2.072-.672-.494-.457-.742-1.134-.742-2.03v-6.608h2.184v6.58c0 .317.084.565.252.742.168.168.397.252.686.252.346 0 .64-.093.882-.28l.588 1.54c-.224.159-.494.28-.812.364-.308.075-.63.112-.966.112zm-3.976-5.796v-1.68h5.222v1.68zm9.514 5.796c-.644 0-1.264-.075-1.862-.224-.588-.159-1.054-.355-1.4-.588l.728-1.568c.346.215.752.392 1.218.532.476.131.943.196 1.4.196.504 0 .859-.061 1.064-.182.215-.121.322-.289.322-.504 0-.177-.084-.308-.252-.392-.158-.093-.373-.163-.644-.21-.27-.047-.569-.093-.896-.14-.317-.047-.639-.107-.966-.182-.326-.084-.625-.205-.896-.364-.27-.159-.49-.373-.658-.644-.158-.271-.238-.621-.238-1.05 0-.476.136-.896.406-1.26.28-.364.682-.649 1.204-.854.523-.215 1.148-.322 1.876-.322.514 0 1.036.056 1.568.168s.976.275 1.33.49l-.728 1.554c-.364-.215-.732-.359-1.106-.434-.364-.084-.718-.126-1.064-.126-.485 0-.84.065-1.064.196s-.336.299-.336.504c0 .187.08.327.238.42.168.093.388.168.658.224.271.056.565.107.882.154.327.037.654.098.98.182.327.084.621.205.882.364.271.149.49.359.658.63.168.261.252.607.252 1.036 0 .467-.14.882-.42 1.246-.28.355-.686.635-1.218.84-.522.205-1.162.308-1.918.308zm5.73 0c-.373 0-.695-.126-.966-.378-.261-.261-.392-.593-.392-.994s.131-.723.392-.966c.271-.252.593-.378.966-.378.383 0 .705.126.966.378.261.243.392.565.392.966s-.131.733-.392.994c-.261.252-.583.378-.966.378zm6.494 0c-.859 0-1.615-.168-2.268-.504-.644-.336-1.143-.793-1.498-1.372-.355-.588-.532-1.255-.532-2.002 0-.756.173-1.423.518-2.002.355-.588.835-1.045 1.442-1.372.607-.336 1.293-.504 2.058-.504.737 0 1.4.159 1.988.476.597.308 1.069.756 1.414 1.344.345.579.518 1.274.518 2.086 0 .084-.005.182-.014.294-.009.103-.019.201-.028.294h-6.118v-1.274h4.97l-.84.378c0-.392-.079-.733-.238-1.022s-.378-.513-.658-.672c-.28-.168-.607-.252-.98-.252s-.705.084-.994.252c-.28.159-.499.387-.658.686-.159.289-.238.635-.238 1.036v.336c0 .411.089.775.266 1.092.187.308.443.546.77.714.336.159.728.238 1.176.238.401 0 .751-.061 1.05-.182.308-.121.588-.303.84-.546l1.162 1.26c-.345.392-.779.695-1.302.91-.523.205-1.125.308-1.806.308zm8.272 0c-.625 0-1.185-.121-1.68-.364-.485-.243-.863-.611-1.134-1.106-.271-.504-.406-1.143-.406-1.918v-4.256h2.184v3.934c0 .625.131 1.087.392 1.386.271.289.649.434 1.134.434.336 0 .635-.07.896-.21.261-.149.467-.373.616-.672.149-.308.224-.691.224-1.148v-3.724h2.184v7.532h-2.072v-2.072l.378.602c-.252.523-.625.919-1.12 1.19-.485.261-1.017.392-1.596.392zm7.259 0c-.373 0-.695-.126-.966-.378-.261-.261-.392-.593-.392-.994s.131-.723.392-.966c.271-.252.593-.378.966-.378.383 0 .705.126.966.378.262.243.392.565.392.966s-.13.733-.392.994c-.261.252-.583.378-.966.378zm7.29 0c-.662 0-1.232-.14-1.708-.42s-.84-.705-1.092-1.274c-.252-.579-.378-1.307-.378-2.184 0-.887.131-1.615.392-2.184.271-.569.644-.994 1.12-1.274s1.032-.42 1.666-.42c.71 0 1.344.159 1.904.476.57.317 1.018.765 1.344 1.344.336.579.504 1.265.504 2.058 0 .784-.168 1.465-.504 2.044-.326.579-.774 1.031-1.344 1.358-.56.317-1.194.476-1.904.476zm-4.452-.112v-10.388h2.184v4.382l-.14 2.226.042 2.24v1.54zm4.074-1.68c.364 0 .686-.084.966-.252.29-.168.518-.406.686-.714.178-.317.266-.691.266-1.12 0-.439-.088-.812-.266-1.12-.168-.308-.396-.546-.686-.714-.28-.168-.602-.252-.966-.252s-.69.084-.98.252c-.289.168-.518.406-.686.714s-.252.681-.252 1.12c0 .429.084.803.252 1.12.168.308.397.546.686.714.29.168.616.252.98.252zm9.33 1.792c-.858 0-1.614-.168-2.268-.504-.644-.336-1.143-.793-1.498-1.372-.354-.588-.532-1.255-.532-2.002 0-.756.173-1.423.518-2.002.355-.588.836-1.045 1.442-1.372.607-.336 1.293-.504 2.058-.504.738 0 1.4.159 1.988.476.598.308 1.069.756 1.414 1.344.346.579.518 1.274.518 2.086 0 .084-.004.182-.014.294-.009.103-.018.201-.028.294h-6.118v-1.274h4.97l-.84.378c0-.392-.079-.733-.238-1.022-.158-.289-.378-.513-.658-.672-.28-.168-.606-.252-.98-.252-.373 0-.704.084-.994.252-.28.159-.499.387-.658.686-.158.289-.238.635-.238 1.036v.336c0 .411.089.775.266 1.092.187.308.444.546.77.714.336.159.728.238 1.176.238.402 0 .752-.061 1.05-.182.308-.121.588-.303.84-.546l1.162 1.26c-.345.392-.779.695-1.302.91-.522.205-1.124.308-1.806.308zm5.094-.112v-7.532h2.086v2.128l-.294-.616c.224-.532.584-.933 1.078-1.204.495-.28 1.097-.42 1.806-.42v2.016c-.093-.009-.177-.014-.252-.014-.074-.009-.154-.014-.238-.014-.597 0-1.082.173-1.456.518-.364.336-.546.863-.546 1.582v3.556zm5.989 0v-10.388h2.184v10.388zm4.211 0v-7.532h2.184v7.532zm1.092-8.582c-.402 0-.728-.117-.98-.35s-.378-.523-.378-.868.126-.635.378-.868.578-.35.98-.35c.401 0 .728.112.98.336.252.215.378.495.378.84 0 .364-.126.667-.378.91-.243.233-.57.35-.98.35zm7.697.938c.597 0 1.129.121 1.596.364.476.233.849.597 1.12 1.092.27.485.406 1.111.406 1.876v4.312h-2.184v-3.976c0-.607-.136-1.055-.406-1.344-.262-.289-.635-.434-1.12-.434-.346 0-.658.075-.938.224-.271.14-.486.359-.644.658-.15.299-.224.681-.224 1.148v3.724h-2.184v-7.532h2.086v2.086l-.392-.63c.27-.504.658-.891 1.162-1.162s1.078-.406 1.722-.406zm5.927 7.756c-.373 0-.695-.126-.966-.378-.261-.261-.392-.593-.392-.994s.131-.723.392-.966c.271-.252.593-.378.966-.378.383 0 .705.126.966.378.262.243.392.565.392.966s-.13.733-.392.994c-.261.252-.583.378-.966.378zm7.29-.112 1.218-9.8h1.568l-1.204 9.8zm-5.18-2.24v-1.526h9.044v1.526zm1.554 2.24 1.218-9.8h1.568l-1.218 9.8zm-1.078-6.034v-1.526h9.03l.014 1.526z" fill="#353537"/></g><path d="m138.624 407h-6.732v-15.378h5.984c1.041 0 1.936.125 2.684.374.763.249 1.335.587 1.716 1.012.689.792 1.034 1.687 1.034 2.684 0 1.203-.389 2.097-1.166 2.684-.264.205-.447.337-.55.396-.103.044-.286.125-.55.242.953.205 1.709.638 2.266 1.298.572.645.858 1.452.858 2.42 0 1.071-.367 2.017-1.1 2.838-.851.953-2.332 1.43-4.444 1.43zm-3.3-9.152h1.628c.953 0 1.657-.103 2.112-.308.469-.205.704-.645.704-1.32 0-.689-.213-1.144-.638-1.364s-1.144-.33-2.156-.33h-1.65zm0 6.248h2.354c.983 0 1.716-.117 2.2-.352.499-.249.748-.726.748-1.43 0-.719-.264-1.188-.792-1.408-.513-.235-1.342-.352-2.486-.352h-2.024zm11.736-12.474h3.432v15.378h-3.432zm17.977 0h3.432v15.378h-3.432l-7.326-9.636v9.636h-3.432v-15.378h3.212l7.546 9.9zm12.658 0c2.743 0 4.847.675 6.314 2.024 1.467 1.335 2.2 3.197 2.2 5.588s-.719 4.283-2.156 5.676c-1.423 1.393-3.601 2.09-6.534 2.09h-5.258v-15.378zm.176 12.342c1.569 0 2.772-.396 3.608-1.188.851-.792 1.276-1.943 1.276-3.454s-.425-2.669-1.276-3.476c-.836-.821-2.127-1.232-3.872-1.232h-1.914v9.35zm11.298-12.342h3.432v15.378h-3.432zm17.977 0h3.432v15.378h-3.432l-7.326-9.636v9.636h-3.432v-15.378h3.212l7.546 9.9zm17.213 7.546h3.454v5.456c-1.526 1.701-3.638 2.552-6.336 2.552-2.259 0-4.158-.748-5.698-2.244-1.526-1.496-2.288-3.381-2.288-5.654 0-2.288.777-4.195 2.332-5.72 1.569-1.525 3.454-2.288 5.654-2.288 2.214 0 4.136.726 5.764 2.178l-1.782 2.574c-.69-.601-1.328-1.012-1.914-1.232-.572-.235-1.196-.352-1.87-.352-1.306 0-2.406.447-3.3 1.342-.895.88-1.342 2.046-1.342 3.498s.425 2.618 1.276 3.498c.865.865 1.892 1.298 3.08 1.298s2.178-.227 2.97-.682zm11.462-4.884c-.572 0-1.027.139-1.364.418-.323.264-.484.623-.484 1.078 0 .44.198.792.594 1.056.41.264 1.342.579 2.794.946 1.466.352 2.603.887 3.41 1.606.806.719 1.21 1.767 1.21 3.146s-.521 2.501-1.562 3.366c-1.027.851-2.384 1.276-4.07 1.276-2.435 0-4.628-.902-6.578-2.706l2.046-2.508c1.657 1.452 3.19 2.178 4.598 2.178.63 0 1.122-.132 1.474-.396.366-.279.55-.645.55-1.1 0-.469-.191-.836-.572-1.1-.382-.279-1.137-.557-2.266-.836-1.79-.425-3.102-.975-3.938-1.65-.822-.689-1.232-1.76-1.232-3.212 0-1.467.52-2.596 1.562-3.388 1.056-.792 2.368-1.188 3.938-1.188 1.026 0 2.053.176 3.08.528 1.026.352 1.921.851 2.684 1.496l-1.738 2.508c-1.335-1.012-2.714-1.518-4.136-1.518z" fill="#353537"/></g><path d="m91.152 169h-9.486v-21.669h8.432c1.4673 0 2.728.176 3.782.527 1.0747.351 1.8807.827 2.418 1.426.9713 1.116 1.457 2.377 1.457 3.782 0 1.695-.5477 2.955-1.643 3.782-.372.289-.6303.475-.775.558-.1447.062-.403.176-.775.341 1.3433.289 2.4077.899 3.193 1.829.806.909 1.209 2.046 1.209 3.41 0 1.509-.5167 2.842-1.55 3.999-1.1987 1.343-3.286 2.015-6.262 2.015zm-4.65-12.896h2.294c1.3433 0 2.3353-.145 2.976-.434.6613-.289.992-.909.992-1.86 0-.971-.2997-1.612-.899-1.922s-1.612-.465-3.038-.465h-2.325zm0 8.804h3.317c1.3847 0 2.418-.165 3.1-.496.7027-.351 1.054-1.023 1.054-2.015 0-1.013-.372-1.674-1.116-1.984-.7233-.331-1.891-.496-3.503-.496h-2.852zm34.114-10.385c0 3.472-1.374 5.714-4.123 6.727l5.487 7.75h-5.952l-4.805-6.913h-3.348v6.913h-4.836v-21.669h8.215c3.369 0 5.766.568 7.192 1.705 1.447 1.137 2.17 2.966 2.17 5.487zm-9.207 3.379c1.653 0 2.78-.269 3.379-.806s.899-1.385.899-2.542c0-1.178-.31-1.984-.93-2.418s-1.705-.651-3.255-.651h-3.627v6.417zm30.527.155c0-1.943-.62-3.596-1.86-4.96s-2.77-2.046-4.588-2.046c-1.798 0-3.317.682-4.557 2.046s-1.86 3.017-1.86 4.96c0 1.922.62 3.565 1.86 4.929 1.24 1.343 2.759 2.015 4.557 2.015 1.818 0 3.348-.672 4.588-2.015 1.24-1.364 1.86-3.007 1.86-4.929zm1.643 7.967c-2.191 2.129-4.888 3.193-8.091 3.193-3.204 0-5.901-1.064-8.091-3.193-2.191-2.149-3.286-4.815-3.286-7.998s1.095-5.838 3.286-7.967c2.19-2.149 4.887-3.224 8.091-3.224 3.203 0 5.9 1.075 8.091 3.224 2.19 2.129 3.286 4.784 3.286 7.967s-1.096 5.849-3.286 7.998zm7.383-18.693h4.836v8.897l8.184-8.897h5.983l-8.618 9.579c.744 1.033 2.118 2.966 4.123 5.797 2.005 2.811 3.503 4.908 4.495 6.293h-5.642l-6.355-8.556-2.17 2.418v6.138h-4.836zm37.633 0v4.309h-10.788v4.464h9.703v4.123h-9.703v4.495h11.129v4.278h-15.965v-21.669zm22.236 7.192c0 3.472-1.374 5.714-4.123 6.727l5.487 7.75h-5.952l-4.805-6.913h-3.348v6.913h-4.836v-21.669h8.215c3.369 0 5.766.568 7.192 1.705 1.447 1.137 2.17 2.966 2.17 5.487zm-9.207 3.379c1.653 0 2.78-.269 3.379-.806s.899-1.385.899-2.542c0-1.178-.31-1.984-.93-2.418s-1.705-.651-3.255-.651h-3.627v6.417z" fill="#353537"/><path d="m413.118 188.665v-83.156c0-2.468-1.972-4.509-4.474-4.509h-3.298c-2.502 0-4.474 2.041-4.474 4.509v83.156l-8.364-8.905-.005-.005c-1.731-1.832-4.634-1.876-6.412-.072l-2.281 2.313c-.001.001-.003.003-.004.004-1.747 1.757-1.735 4.6-.004 6.356l20.019 20.304c.002.001.003.002.005.004 1.748 1.787 4.599 1.775 6.345.003h.001l20.022-20.319c1.747-1.757 1.735-4.599.004-6.355-.001 0-.001 0-.001 0l-2.28-2.313c-.002-.002-.003-.003-.005-.004-1.78-1.82-4.689-1.775-6.421.074 0 .001-.001.002-.002.002z" fill="#b3b8bf" stroke="#fff" stroke-width="4"/><path d="m358.755 37.66h-.34l.34 54.6396 47.744-26.6454z" fill="#ffd687"/><path d="m454.593 38.1505-48.093 27.5037 47.056 27.0981.056-.5093z" fill="#ffd687"/><path d="m360.141 92.6014.264 1.047h92.585l-46.491-27.9942-27.258 15.5911z" fill="#fdb836"/><path d="m406.5 65.6542 46.226 27.1076" stroke="#353537" stroke-width="2.73528"/><path d="m360.141 92.6014 46.424-26.834" stroke="#353537" stroke-width="2.73528"/><path d="m454.593 38.1505v-.4905h-95.838l47.745 32.5499z" fill="#fdb836"/><path d="m422.232 93.2051h-59.61c-1.128.0026-2.21-.447-3.004-1.2481-.794-.8012-1.234-1.8872-1.222-3.0152l.151-48.8672c0-1.4997 1.424-3.6502 3-3.6313h89.811c1.547 0 3.028 2.1694 3.018 3.6879l-.122 49.2539c-.003 1.1274-.454 2.2074-1.253 3.0019-.8.7944-1.883 1.2381-3.011 1.2331h-5.781" stroke="#353537" stroke-width="2.73528"/><path d="m359.339 38.1505 47.16 32.0594 47.594-31.7293" stroke="#353537" stroke-width="2.73528"/><path d="m70.323 55.331c3.3273 0 5.7453.651 7.254 1.953 1.5293 1.2813 2.294 3.2653 2.294 5.952 0 2.666-.7853 4.619-2.356 5.859-1.55 1.24-3.9267 1.86-7.13 1.86h-2.883v6.045h-4.836v-21.669zm.434 11.439c1.612 0 2.7073-.3203 3.286-.961.5787-.6613.868-1.612.868-2.852 0-1.2607-.3823-2.1493-1.147-2.666-.744-.5373-1.9117-.806-3.503-.806h-2.759v7.285zm30.465-4.247c0 3.472-1.3738 5.7143-4.1225 6.727l5.4865 7.75h-5.9515l-4.805-6.913h-3.348v6.913h-4.836v-21.669h8.215c3.3687 0 5.766.5683 7.192 1.705 1.4465 1.1367 2.1695 2.9657 2.1695 5.487zm-9.2065 3.379c1.6533 0 2.7797-.2687 3.379-.806s.899-1.3847.899-2.542c0-1.178-.31-1.984-.93-2.418s-1.705-.651-3.255-.651h-3.627v6.417zm30.5265.155c0-1.9427-.62-3.596-1.86-4.96s-2.769-2.046-4.588-2.046c-1.798 0-3.317.682-4.557 2.046s-1.86 3.0173-1.86 4.96c0 1.922.62 3.565 1.86 4.929 1.24 1.3433 2.759 2.015 4.557 2.015 1.819 0 3.348-.6717 4.588-2.015 1.24-1.364 1.86-3.007 1.86-4.929zm1.643 7.967c-2.191 2.1287-4.888 3.193-8.091 3.193s-5.9-1.0643-8.091-3.193c-2.191-2.1493-3.286-4.8153-3.286-7.998s1.095-5.8383 3.286-7.967c2.191-2.1493 4.888-3.224 8.091-3.224s5.9 1.0747 8.091 3.224c2.191 2.1287 3.286 4.7843 3.286 7.967s-1.095 5.8487-3.286 7.998zm15.04-18.693c3.865 0 6.831.9507 8.897 2.852 2.067 1.8807 3.1 4.5053 3.1 7.874s-1.012 6.0347-3.038 7.998c-2.004 1.9633-5.073 2.945-9.207 2.945h-7.409v-21.669zm.248 17.391c2.212 0 3.906-.558 5.084-1.674 1.199-1.116 1.798-2.7383 1.798-4.867s-.599-3.7613-1.798-4.898c-1.178-1.1573-2.996-1.736-5.456-1.736h-2.697v13.175zm21.656-1.302c.806.992 1.891 1.488 3.255 1.488s2.438-.496 3.224-1.488c.806-1.0127 1.209-2.387 1.209-4.123v-11.966h4.836v12.121c0 3.1413-.868 5.5593-2.604 7.254-1.736 1.674-3.958 2.511-6.665 2.511-2.708 0-4.94-.8473-6.696-2.542-1.736-1.6947-2.604-4.1023-2.604-7.223v-12.121h4.836v11.966c0 1.736.403 3.1103 1.209 4.123zm27.496 1.302c2.376 0 4.319-.9403 5.828-2.821l3.1 3.193c-2.46 2.7693-5.363 4.154-8.711 4.154-3.328 0-6.076-1.054-8.246-3.162-2.15-2.108-3.224-4.7637-3.224-7.967 0-3.224 1.095-5.9107 3.286-8.06 2.211-2.1493 4.908-3.224 8.091-3.224 3.554 0 6.53 1.3537 8.928 4.061l-3.007 3.41c-1.53-1.9013-3.431-2.852-5.704-2.852-1.819 0-3.379.5993-4.681 1.798-1.282 1.178-1.922 2.7797-1.922 4.805 0 2.0047.609 3.6167 1.829 4.836 1.219 1.2193 2.697 1.829 4.433 1.829zm28.378-17.391v4.309h-10.788v4.464h9.703v4.123h-9.703v4.495h11.129v4.278h-15.965v-21.669zm22.236 7.192c0 3.472-1.374 5.7143-4.123 6.727l5.487 7.75h-5.952l-4.805-6.913h-3.348v6.913h-4.836v-21.669h8.215c3.369 0 5.766.5683 7.192 1.705 1.447 1.1367 2.17 2.9657 2.17 5.487zm-9.207 3.379c1.653 0 2.78-.2687 3.379-.806s.899-1.3847.899-2.542c0-1.178-.31-1.984-.93-2.418s-1.705-.651-3.255-.651h-3.627v6.417z" fill="#353537"/></svg>